<svg width="120" height="28" viewBox="0 0 120 28" fill="none" xmlns="http://www.w3.org/2000/svg">
<path d="M49.2282 7.53018H46.8725V20.7845H49.2282V7.53018Z" fill="black"/>
<path d="M70.7316 13.0672C73.2081 13.6511 74.6376 14.4766 74.9799 16.1074C75.0386 16.3786 75.0656 16.6556 75.0604 16.9329C75.0604 19.4095 73.3289 20.9799 70.5101 20.9799C68.3594 20.9621 66.2842 20.1848 64.651 18.7853L66.0806 17.1142C67.3692 18.2215 68.8994 18.9262 70.5705 18.9262C72.2416 18.9262 72.7047 18.1813 72.7047 17.1544C72.7047 16.1276 72.1611 15.6846 69.6645 15.1209C66.8054 14.4564 65.1544 13.5101 65.1544 11.0537C65.1544 8.59737 66.8658 7.30878 69.5235 7.30878C71.375 7.28809 73.181 7.88299 74.6577 9.00005L73.3893 10.7517C72.1812 9.86583 70.8121 9.2618 69.5839 9.2618C68.3557 9.2618 67.5101 9.9665 67.5101 10.8524C67.5101 11.7383 68.1745 12.4631 70.7316 13.0672Z" fill="black"/>
<path d="M93.302 7.53018L90.0604 17.2953L86.7383 7.53018H84.745L81.4228 17.2953L78.1812 7.53018H75.6242L80.3356 20.7785H82.3893L85.7114 11.3355L89.0336 20.7785H91.0671L95.7785 7.53018H93.302Z" fill="black"/>
<path d="M114.705 9.64428H111.362V14.2953H114.705C116.497 14.2953 117.604 13.6107 117.604 11.8993C117.604 10.1879 116.477 9.64428 114.705 9.64428ZM114.624 16.3691H111.362V20.7785H109.007V7.53018H114.906C118.027 7.53018 120 9.12079 120 11.7986C120 14.7785 117.805 16.3691 114.624 16.3691Z" fill="black"/>
<path d="M58.2282 9.64428H54.8054V14.2751H58.2483C59.9396 14.2751 61.0269 13.2886 61.0269 11.9396C61.0269 10.5906 59.9799 9.64428 58.2282 9.64428ZM60.6846 20.7785L57.745 16.3288H54.8054V20.7785H52.4295V7.53018H58.4295C61.5101 7.53018 63.4228 9.3624 63.4228 11.9396C63.4228 14.1141 62.094 15.4228 60.2013 15.9463L63.4832 20.7785H60.6846Z" fill="black"/>
<path d="M38.0739 10.2886L39.9866 15.3221C38.5331 15.3197 37.0967 15.6358 35.7786 16.2483L38.0739 10.2886ZM31.2685 20.7785H33.745C33.745 20.7785 35.537 16.9731 40.792 17.396L42.2014 20.7785H44.6779L39.2014 7.53018H36.8859L31.2685 20.7785Z" fill="black"/>
<path d="M103.067 16.2483C101.749 15.637 100.312 15.321 98.8591 15.3221L100.772 10.2886L103.067 16.2483ZM101.96 7.53018H99.6443L94.1476 20.7785H96.6242L98.0537 17.396C103.289 16.9731 105.081 20.7785 105.081 20.7785H107.577L101.96 7.53018Z" fill="black"/>
<path d="M20.3557 20.3155L13.5302 27.141L10.1476 23.7584C13.7953 23.5358 17.3183 22.3476 20.3557 20.3155Z" fill="black"/>
<path d="M26.8389 13.3087L25.9933 12.4631L13.5302 0L1.06711 12.4631L0 13.5302L0.382551 13.8725C0.825504 14.2349 1.26846 14.5772 1.73154 14.8993C5.11403 17.2678 9.13031 18.5649 13.2592 18.6223C17.388 18.6798 21.4388 17.4949 24.8859 15.2215C25.3691 14.8993 25.8523 14.5369 26.3154 14.1745C26.7785 13.8121 26.8188 13.7517 27.0604 13.5302L26.8389 13.3087ZM16.8121 16.4295C13.0939 14.147 8.81248 12.9476 4.44966 12.9664C10.1476 10.4899 17.1141 10.1476 23.5168 13.8322C21.4711 15.1239 19.1941 16.006 16.8121 16.4295Z" fill="black"/>
</svg>
