<svg width="24" height="24" viewBox="0 0 24 24" fill="none" xmlns="http://www.w3.org/2000/svg">
<path d="M18.0001 17.9644L11.9645 24L8.97339 21.0089C12.1989 20.812 15.3142 19.7613 18.0001 17.9644Z" fill="black"/>
<path d="M23.7329 11.7685L22.9851 11.0208L11.9644 0L0.943619 11.0208L0 11.9644L0.338279 12.267C0.729969 12.5875 1.12166 12.8902 1.53115 13.1751C4.52219 15.2694 8.07367 16.4164 11.7247 16.4672C15.3757 16.518 18.9578 15.4703 22.0059 13.4599C22.4332 13.1751 22.8605 12.8546 23.27 12.5341C23.6795 12.2136 23.7151 12.1602 23.9287 11.9644L23.7329 11.7685ZM14.8664 14.5282C11.5786 12.5098 7.79263 11.4492 3.93471 11.4659C8.97328 9.27595 15.1335 8.97328 20.7952 12.2314C18.9863 13.3736 16.9728 14.1537 14.8664 14.5282Z" fill="black"/>
</svg>
