<svg width="60" height="60" viewBox="0 0 60 60" fill="none" xmlns="http://www.w3.org/2000/svg">
<circle cx="30" cy="30" r="30" fill="#2B71FF" fill-opacity="0.1"/>
<path d="M22.0888 32.7412L15 35.796C15.9399 36.0702 17.0366 36.5793 17.9373 37.4409C19.2689 38.7725 19.5431 40.4174 19.5431 41.3182C20.4439 41.3574 22.1279 41.6315 23.577 43.0806C24.2036 43.7073 24.5953 44.3731 24.7911 44.9997L28.1201 37.8718C26.5927 37.5584 25.1436 36.8143 23.9295 35.6394C23.107 34.7778 22.5196 33.7987 22.0888 32.7412Z" fill="#2B71FF"/>
<path d="M41.3973 19.5431C40.4965 19.5039 38.8516 19.2689 37.52 17.9373C36.6584 17.0757 36.1493 15.9399 35.8751 15L32.8203 22.0888C33.8778 22.4804 34.8569 23.107 35.6793 23.9295C36.8543 25.1044 37.5984 26.5927 37.9117 28.1201L45.0396 24.7911C44.4522 24.5953 43.7864 24.2036 43.1206 23.577C41.7106 22.1279 41.4365 20.4439 41.3973 19.5431Z" fill="#2B71FF"/>
<path d="M34.8567 24.7521C34.1126 24.008 33.2509 23.4989 32.3502 23.1464C31.9977 23.0289 31.606 22.9114 31.2536 22.8331C28.982 22.3631 26.5538 23.0289 24.7914 24.7521C23.029 26.5145 22.4024 28.9427 22.8724 31.2143C22.9507 31.6059 23.0682 31.9584 23.1857 32.3109C23.5382 33.2117 24.0473 34.0733 24.7914 34.8174C25.888 35.914 27.2588 36.5798 28.6687 36.8148C29.0603 36.8931 29.4912 36.9323 29.8828 36.9323C31.6844 36.9323 33.4859 36.2273 34.8567 34.8566C36.2274 33.4858 36.9324 31.6842 36.9324 29.8827C36.9324 29.491 36.8932 29.0602 36.8149 28.6686C36.5799 27.1803 35.9533 25.8096 34.8567 24.7521Z" fill="#2B71FF"/>
</svg>
