<svg width="30" height="30" fill="none" xmlns="http://www.w3.org/2000/svg"><path d="M29.9537 17.0824c-.0353-.4484-.0677-.9091-.1087-1.3676-.0137-.1731-.0395-.3451-.0771-.5147-.1266-.5398-.2526-1.0797-.3994-1.6138-.1188-.4319-.2505-.8638-.4067-1.287-.1562-.4233-.3506-.853-.5392-1.2733-.2641-.5896-.5211-1.18413-.8155-1.75926-.3498-.68382-.7198-1.35756-1.1107-2.02122-.393-.67446-.7918-1.34748-1.2337-1.99171-.3993-.57936-.8294-1.13681-1.2885-1.66996-.4024-.46083-.8296-.89936-1.2798-1.31365-.3282-.31527-.6832-.6014-1.061-.85513-.6487-.439857-1.3573-.784093-2.104-1.022128-.4427-.134604-.8933-.283604-1.3489-.322474-.5802-.0482272-1.1654-.1043722-1.7564-.0446281-.5146.0518263-1.0322.0640629-1.5389.1871501-.2642.064063-.5377.090696-.7976.166276-.4808.140363-.9573.295121-1.4302.459958-.5089.177076-1.0214.349826-1.5116.565766-.5982.26201-1.17907.56217-1.76427.8537-.4686.23321-.94367.45779-1.39571.7198-.7594.44341-1.50512.91056-2.25228 1.37412-.80789.5068-1.57318 1.07854-2.28827 1.70954-.90898.78285-1.69601 1.69701-2.33506 2.71224-.127409.20443-.275689.40166-.367825.6212-.173678.40613-.323885.82191-.44988 1.24531-.123592.4004-.209621.8115-.2569718 1.2279-.03851691.4975-.0457292.9968-.0215942 1.4951.0143961.4686.0676619.9357.105092 1.4029.003944.0256.009962.0509.017995.0756.067662.2757.130286.5528.205865.8263.118049.4276.233218.8573.372861 1.2784.100054.3023.242576.5895.359908.8875.09573.2512.16339.514.26777.7609.16555.393.34694.7795.52977 1.1653.28793.6133.57585 1.2309.88897 1.8327.26705.511.56649 1.0077.86377 1.5.57585.948 1.17257 1.878 1.86214 2.7476.51483.6668 1.08684 1.2875 1.70955 1.8549.96166.8537 2.01546 1.539 3.25857 1.9269.5859.1829 1.1805.2736 1.7794.3491.3645.0356.7314.0372 1.0962.0051.6732-.0301 1.3418-.1265 1.9961-.2879.2929-.0771.6017-.0965.8904-.185.416-.1282.8206-.2966 1.2301-.4463.4456-.1627.8947-.3146 1.3345-.4895.2973-.118.5838-.2627.8703-.4052.7846-.3923 1.5836-.758 2.3444-1.1928.9358-.5362 1.8578-1.1106 2.7598-1.7081.8645-.5689 1.6687-1.2247 2.3998-1.9571.8638-.8724 1.6066-1.8348 2.1155-2.9656.257-.5833.4445-1.1948.5586-1.8219.0835-.4657.0828-.9458.1224-1.4353z" fill="#fff"/><path d="M24.0052 17.9224c-.0576.6327-.3088 1.1028-.8638 1.4116-.6939.3865-1.377.7918-2.0651 1.1884l-3.4601 1.9924c-1.1776.6774-2.3444 1.3734-3.5357 2.027-.8386.46-1.8463.1382-2.2264-.7853-.2922-.7112-.0302-1.5332.7105-1.9478.9264-.5197 1.8333-1.074 2.754-1.6038.9918-.57 1.9938-1.1221 2.9828-1.6958.7321-.424 1.4483-.8753 2.1782-1.3036.4355-.2562.8638-.5363 1.3287-.7284.7307-.3016 1.6333-.0317 1.9954.7788.0935.2102.136.4434.2015.6665zM19.2954 10.9252c.699-.0151 1.331.5607 1.4958 1.1172.1034.3455.0858.716-.0499 1.0501-.1357.3342-.3815.612-.6966.7875-.9357.5183-1.8455 1.0797-2.7712 1.6124-1.0099.5874-2.027 1.1632-3.0412 1.7391-.6334.3637-1.2662.7294-1.8981 1.0969-.424.2469-.8473.4953-1.264.7551-.1787.1146-.3791.191-.5887.2245-.2096.0334-.4239.0232-.62935-.03-.20546-.0533-.3977-.1485-.56466-.2795-.16695-.1311-.30502-.2952-.40554-.4822-.39229-.745-.23178-1.6879.63055-2.1688.7976-.4448 1.5764-.922 2.3675-1.3791.9587-.555 1.9211-1.1035 2.8792-1.6556l2.605-1.495c.4398-.252.8702-.5204 1.3201-.7508.1843-.0885.4081-.0979.6111-.1418zM17.2757 7.09937c-.0583.59168-.3131 1.01709-.8199 1.30717-.8803.50387-1.7498 1.02501-2.628 1.53247-.7918.45999-1.5965.90989-2.3941 1.36769-.7812.4477-1.56123.8964-2.34006 1.346-.45636.2613-.90336.5398-1.3734.7731-.63271.3138-1.44753.0878-1.8607-.5442-.1064-.1617-.17969-.3428-.21564-.5329-.03595-.1902-.03386-.3856.00617-.5749.03896-.2073.12331-.4034.24701-.5743.12371-.1709.28369-.3123.46848-.414 1.0646-.614 2.12416-1.23734 3.18947-1.84918 1.06537-.61184 2.15007-1.2172 3.22117-1.83191.745-.42757 1.4785-.87529 2.2263-1.29566.7307-.41245 1.7225-.1598 2.081.65791.0885.19794.1296.41965.1922.63271z" fill="#2B71FF"/></svg>