<svg width="20" height="20" viewBox="0 0 20 20" fill="none" xmlns="http://www.w3.org/2000/svg">
<g id="Group">
<g id="Group_2">
<g id="Group_3">
<g id="Vector">
<mask id="path-1-outside-1" maskUnits="userSpaceOnUse" x="4.32959" y="4.37012" width="11" height="11" fill="black">
<rect fill="white" x="4.32959" y="4.37012" width="11" height="11"/>
<path d="M5.84203 14.6382C7.63612 13.9356 9.43022 13.2291 11.2243 12.5266C11.4545 12.4353 11.6887 12.3479 11.915 12.2566C12.1928 12.1455 12.2682 11.7922 12.3714 11.5342C12.7882 10.4824 13.201 9.43056 13.6178 8.37871C13.9472 7.54517 14.2766 6.71163 14.6061 5.8781C14.7133 5.60819 14.3878 5.28668 14.1179 5.38988C12.3198 6.08846 10.5218 6.78705 8.72369 7.48563C8.48554 7.57693 8.24739 7.66822 8.00923 7.76348C7.73139 7.87462 7.65597 8.22788 7.55277 8.48985C7.14791 9.52979 6.74305 10.5737 6.33819 11.6136C6.00874 12.4591 5.67929 13.3085 5.34985 14.1539C5.27046 14.3524 5.43717 14.5906 5.62769 14.6422C5.85394 14.7057 6.03653 14.5667 6.11591 14.3643C6.80656 12.5821 7.50117 10.8039 8.19182 9.02173C8.29105 8.76373 8.39028 8.50969 8.48951 8.25169C8.39822 8.34299 8.30295 8.43825 8.21166 8.52954C9.99385 7.83889 11.7721 7.14428 13.5542 6.45363C13.8122 6.3544 14.0663 6.25517 14.3243 6.15594C14.1615 5.9932 13.9988 5.83046 13.8361 5.66773C13.1335 7.44594 12.431 9.22416 11.7284 11.0024C11.6292 11.2564 11.526 11.5144 11.4267 11.7684C11.518 11.6771 11.6133 11.5819 11.7046 11.4906C9.92637 12.1892 8.14815 12.8878 6.36994 13.5824C6.11988 13.6816 5.87379 13.7769 5.62372 13.8761C5.42526 13.9555 5.28634 14.142 5.34588 14.3643C5.40542 14.5509 5.6396 14.7136 5.84203 14.6382Z"/>
</mask>
<path d="M5.84203 14.6382C7.63612 13.9356 9.43022 13.2291 11.2243 12.5266C11.4545 12.4353 11.6887 12.3479 11.915 12.2566C12.1928 12.1455 12.2682 11.7922 12.3714 11.5342C12.7882 10.4824 13.201 9.43056 13.6178 8.37871C13.9472 7.54517 14.2766 6.71163 14.6061 5.8781C14.7133 5.60819 14.3878 5.28668 14.1179 5.38988C12.3198 6.08846 10.5218 6.78705 8.72369 7.48563C8.48554 7.57693 8.24739 7.66822 8.00923 7.76348C7.73139 7.87462 7.65597 8.22788 7.55277 8.48985C7.14791 9.52979 6.74305 10.5737 6.33819 11.6136C6.00874 12.4591 5.67929 13.3085 5.34985 14.1539C5.27046 14.3524 5.43717 14.5906 5.62769 14.6422C5.85394 14.7057 6.03653 14.5667 6.11591 14.3643C6.80656 12.5821 7.50117 10.8039 8.19182 9.02173C8.29105 8.76373 8.39028 8.50969 8.48951 8.25169C8.39822 8.34299 8.30295 8.43825 8.21166 8.52954C9.99385 7.83889 11.7721 7.14428 13.5542 6.45363C13.8122 6.3544 14.0663 6.25517 14.3243 6.15594C14.1615 5.9932 13.9988 5.83046 13.8361 5.66773C13.1335 7.44594 12.431 9.22416 11.7284 11.0024C11.6292 11.2564 11.526 11.5144 11.4267 11.7684C11.518 11.6771 11.6133 11.5819 11.7046 11.4906C9.92637 12.1892 8.14815 12.8878 6.36994 13.5824C6.11988 13.6816 5.87379 13.7769 5.62372 13.8761C5.42526 13.9555 5.28634 14.142 5.34588 14.3643C5.40542 14.5509 5.6396 14.7136 5.84203 14.6382Z" fill="black"/>
<path d="M5.84203 14.6382C7.63612 13.9356 9.43022 13.2291 11.2243 12.5266C11.4545 12.4353 11.6887 12.3479 11.915 12.2566C12.1928 12.1455 12.2682 11.7922 12.3714 11.5342C12.7882 10.4824 13.201 9.43056 13.6178 8.37871C13.9472 7.54517 14.2766 6.71163 14.6061 5.8781C14.7133 5.60819 14.3878 5.28668 14.1179 5.38988C12.3198 6.08846 10.5218 6.78705 8.72369 7.48563C8.48554 7.57693 8.24739 7.66822 8.00923 7.76348C7.73139 7.87462 7.65597 8.22788 7.55277 8.48985C7.14791 9.52979 6.74305 10.5737 6.33819 11.6136C6.00874 12.4591 5.67929 13.3085 5.34985 14.1539C5.27046 14.3524 5.43717 14.5906 5.62769 14.6422C5.85394 14.7057 6.03653 14.5667 6.11591 14.3643C6.80656 12.5821 7.50117 10.8039 8.19182 9.02173C8.29105 8.76373 8.39028 8.50969 8.48951 8.25169C8.39822 8.34299 8.30295 8.43825 8.21166 8.52954C9.99385 7.83889 11.7721 7.14428 13.5542 6.45363C13.8122 6.3544 14.0663 6.25517 14.3243 6.15594C14.1615 5.9932 13.9988 5.83046 13.8361 5.66773C13.1335 7.44594 12.431 9.22416 11.7284 11.0024C11.6292 11.2564 11.526 11.5144 11.4267 11.7684C11.518 11.6771 11.6133 11.5819 11.7046 11.4906C9.92637 12.1892 8.14815 12.8878 6.36994 13.5824C6.11988 13.6816 5.87379 13.7769 5.62372 13.8761C5.42526 13.9555 5.28634 14.142 5.34588 14.3643C5.40542 14.5509 5.6396 14.7136 5.84203 14.6382Z" stroke="black" stroke-width="0.5" mask="url(#path-1-outside-1)"/>
</g>
</g>
</g>
<g id="Group_4">
<g id="Group_5">
<g id="Vector_2">
<mask id="path-2-outside-2" maskUnits="userSpaceOnUse" x="0" y="0" width="20" height="20" fill="black">
<rect fill="white" width="20" height="20"/>
<path d="M18.2062 10.0022C18.2022 11.7129 17.6703 13.376 16.678 14.7732C15.7333 16.1068 14.36 17.1547 12.8239 17.7104C11.1925 18.3018 9.39843 18.3693 7.73136 17.889C6.12382 17.4286 4.6949 16.472 3.63511 15.186C1.456 12.5425 1.20594 8.6804 2.97622 5.75508C3.83754 4.3341 5.12357 3.20286 6.63585 2.51222C8.18385 1.8057 9.97794 1.61517 11.645 1.95653C13.2803 2.29391 14.7807 3.12348 15.9358 4.32616C17.0948 5.5328 17.8529 7.0808 18.1188 8.732C18.1784 9.15274 18.2062 9.57745 18.2062 10.0022C18.2062 10.5142 19 10.5142 19 10.0022C18.996 8.15249 18.4245 6.31871 17.3488 4.8104C16.289 3.31797 14.8045 2.1788 13.0858 1.54373C11.3275 0.892773 9.3508 0.829265 7.54877 1.33733C5.81025 1.82951 4.22256 2.85754 3.07545 4.25471C1.89262 5.69157 1.17419 7.45391 1.02733 9.30754C0.880466 11.1612 1.32899 13.0585 2.28954 14.6501C3.21834 16.1862 4.61948 17.4484 6.2548 18.1867C7.98936 18.9726 9.93031 19.1949 11.7958 18.8218C13.5741 18.4685 15.2332 17.5437 16.4875 16.2378C17.7457 14.924 18.6031 13.2291 18.8809 11.4271C18.9524 10.9548 18.996 10.4785 18.996 10.0022C19.004 9.49013 18.2101 9.49013 18.2062 10.0022Z"/>
</mask>
<path d="M18.2062 10.0022C18.2022 11.7129 17.6703 13.376 16.678 14.7732C15.7333 16.1068 14.36 17.1547 12.8239 17.7104C11.1925 18.3018 9.39843 18.3693 7.73136 17.889C6.12382 17.4286 4.6949 16.472 3.63511 15.186C1.456 12.5425 1.20594 8.6804 2.97622 5.75508C3.83754 4.3341 5.12357 3.20286 6.63585 2.51222C8.18385 1.8057 9.97794 1.61517 11.645 1.95653C13.2803 2.29391 14.7807 3.12348 15.9358 4.32616C17.0948 5.5328 17.8529 7.0808 18.1188 8.732C18.1784 9.15274 18.2062 9.57745 18.2062 10.0022C18.2062 10.5142 19 10.5142 19 10.0022C18.996 8.15249 18.4245 6.31871 17.3488 4.8104C16.289 3.31797 14.8045 2.1788 13.0858 1.54373C11.3275 0.892773 9.3508 0.829265 7.54877 1.33733C5.81025 1.82951 4.22256 2.85754 3.07545 4.25471C1.89262 5.69157 1.17419 7.45391 1.02733 9.30754C0.880466 11.1612 1.32899 13.0585 2.28954 14.6501C3.21834 16.1862 4.61948 17.4484 6.2548 18.1867C7.98936 18.9726 9.93031 19.1949 11.7958 18.8218C13.5741 18.4685 15.2332 17.5437 16.4875 16.2378C17.7457 14.924 18.6031 13.2291 18.8809 11.4271C18.9524 10.9548 18.996 10.4785 18.996 10.0022C19.004 9.49013 18.2101 9.49013 18.2062 10.0022Z" fill="black"/>
<path d="M16.678 14.7732L16.4334 14.5995L16.4332 14.5998L16.678 14.7732ZM12.8239 17.7104L12.7218 17.4283L12.7216 17.4284L12.8239 17.7104ZM7.73136 17.889L7.81441 17.6007L7.81396 17.6006L7.73136 17.889ZM3.63511 15.186L3.86663 14.9952L3.8666 14.9951L3.63511 15.186ZM2.97622 5.75508L2.71967 5.59957L2.71956 5.59976L2.97622 5.75508ZM6.63585 2.51222L6.51129 2.2393L6.51122 2.23933L6.63585 2.51222ZM11.645 1.95653L11.7056 1.66271L11.7052 1.66262L11.645 1.95653ZM15.9358 4.32616L15.7194 4.53396L15.7194 4.53398L15.9358 4.32616ZM18.1188 8.732L18.4159 8.68996L18.415 8.6843L18.1188 8.732ZM19 10.0022L19.3 10.0022L19.3 10.0015L19 10.0022ZM17.3488 4.8104L17.1042 4.9841L17.1046 4.98459L17.3488 4.8104ZM13.0858 1.54373L12.9817 1.82507L12.9819 1.82513L13.0858 1.54373ZM7.54877 1.33733L7.46736 1.04858L7.46705 1.04867L7.54877 1.33733ZM3.07545 4.25471L3.30707 4.44538L3.30731 4.44508L3.07545 4.25471ZM2.28954 14.6501L2.03269 14.8051L2.03282 14.8053L2.28954 14.6501ZM6.2548 18.1867L6.37862 17.9134L6.37824 17.9133L6.2548 18.1867ZM11.7958 18.8218L11.7374 18.5275L11.737 18.5276L11.7958 18.8218ZM16.4875 16.2378L16.7038 16.4456L16.7041 16.4453L16.4875 16.2378ZM18.8809 11.4271L19.1774 11.4728L19.1775 11.472L18.8809 11.4271ZM18.996 10.0022L18.696 9.9975V10.0022H18.996ZM17.9062 10.0015C17.9023 11.6502 17.3898 13.2529 16.4334 14.5995L16.9226 14.9469C17.9508 13.4991 18.502 11.7756 18.5062 10.0029L17.9062 10.0015ZM16.4332 14.5998C15.5238 15.8837 14.2001 16.8935 12.7218 17.4283L12.9259 17.9925C14.5198 17.4159 15.9429 16.33 16.9228 14.9466L16.4332 14.5998ZM12.7216 17.4284C11.149 17.9985 9.41977 18.0632 7.81441 17.6007L7.64831 18.1773C9.37709 18.6753 11.236 18.6051 12.9261 17.9924L12.7216 17.4284ZM7.81396 17.6006C6.2667 17.1574 4.88908 16.2359 3.86663 14.9952L3.40359 15.3768C4.50072 16.7081 5.98094 17.6997 7.64875 18.1774L7.81396 17.6006ZM3.8666 14.9951C1.76989 12.4516 1.52748 8.72853 3.23288 5.9104L2.71956 5.59976C0.88441 8.63228 1.14212 12.6333 3.40362 15.3768L3.8666 14.9951ZM3.23277 5.91059C4.06224 4.54214 5.30181 3.45127 6.76048 2.78511L6.51122 2.23933C4.94534 2.95446 3.61284 4.12605 2.71967 5.59957L3.23277 5.91059ZM6.76041 2.78514C8.24914 2.10567 9.97841 1.92149 11.5848 2.25043L11.7052 1.66262C9.97747 1.30885 8.11856 1.50573 6.51129 2.2393L6.76041 2.78514ZM11.5844 2.25034C13.1602 2.57545 14.6063 3.37499 15.7194 4.53396L16.1521 4.11835C14.9551 2.87197 13.4005 2.01237 11.7056 1.66271L11.5844 2.25034ZM15.7194 4.53398C16.8351 5.69552 17.5662 7.18724 17.8226 8.7797L18.415 8.6843C18.1396 6.97437 17.3545 5.37009 16.1521 4.11834L15.7194 4.53398ZM17.8218 8.77404C17.8792 9.17988 17.9062 9.5905 17.9062 10.0022H18.5062C18.5062 9.5644 18.4775 9.1256 18.4159 8.68997L17.8218 8.77404ZM17.9062 10.0022C17.9062 10.2151 17.992 10.395 18.1346 10.5176C18.2709 10.6348 18.4425 10.6862 18.6031 10.6862C18.7636 10.6862 18.9353 10.6348 19.0716 10.5176C19.2141 10.395 19.3 10.2151 19.3 10.0022H18.7C18.7 10.0267 18.6954 10.0402 18.6925 10.0466C18.6896 10.053 18.6858 10.058 18.6804 10.0627C18.6678 10.0735 18.641 10.0862 18.6031 10.0862C18.5651 10.0862 18.5383 10.0735 18.5258 10.0627C18.5203 10.058 18.5165 10.053 18.5136 10.0466C18.5107 10.0402 18.5062 10.0267 18.5062 10.0022H17.9062ZM19.3 10.0015C19.2959 8.09148 18.7059 6.19668 17.5931 4.63621L17.1046 4.98459C18.143 6.44074 18.6962 8.21351 18.7 10.0028L19.3 10.0015ZM17.5934 4.63671C16.4987 3.09517 14.9653 1.91839 13.1898 1.26232L12.9819 1.82513C14.6437 2.43922 16.0793 3.54077 17.1042 4.9841L17.5934 4.63671ZM13.19 1.26239C11.3706 0.588824 9.32886 0.523757 7.46736 1.04858L7.63018 1.62607C9.37275 1.13477 11.2844 1.19672 12.9817 1.82507L13.19 1.26239ZM7.46705 1.04867C5.67067 1.55724 4.03023 2.61903 2.84359 4.06434L3.30731 4.44508C4.41489 3.09606 5.94983 2.10179 7.63049 1.62598L7.46705 1.04867ZM2.84383 4.06404C1.62241 5.54778 0.880036 7.36825 0.728265 9.28385L1.32639 9.33124C1.46834 7.53957 2.16283 5.83536 3.30707 4.44538L2.84383 4.06404ZM0.728265 9.28385C0.576448 11.2 1.03975 13.1598 2.03269 14.8051L2.54639 14.4951C1.61823 12.9571 1.18448 11.1223 1.32639 9.33124L0.728265 9.28385ZM2.03282 14.8053C2.99216 16.3919 4.43911 17.6962 6.13136 18.4601L6.37824 17.9133C4.79985 17.2007 3.44452 15.9805 2.54626 14.4949L2.03282 14.8053ZM6.13099 18.46C7.92271 19.2718 9.92754 19.5014 11.8547 19.116L11.737 18.5276C9.93308 18.8884 8.05601 18.6735 6.37861 17.9134L6.13099 18.46ZM11.8543 19.116C13.6944 18.7505 15.4082 17.7946 16.7038 16.4456L16.2711 16.03C15.0582 17.2928 13.4538 18.1866 11.7374 18.5275L11.8543 19.116ZM16.7041 16.4453C18.0035 15.0886 18.8899 13.3378 19.1774 11.4728L18.5844 11.3814C18.3163 13.1205 17.4879 14.7594 16.2708 16.0303L16.7041 16.4453ZM19.1775 11.472C19.2507 10.9882 19.296 10.4966 19.296 10.0022H18.696C18.696 10.4603 18.654 10.9213 18.5843 11.3822L19.1775 11.472ZM19.296 10.0068C19.2993 9.7938 19.2161 9.61224 19.0737 9.48807C18.9379 9.36955 18.7659 9.31813 18.6056 9.31813C18.4451 9.31813 18.2737 9.36956 18.1374 9.48612C17.995 9.60791 17.9078 9.78697 17.9062 9.99983L18.5061 10.0045C18.5063 9.97994 18.511 9.96623 18.5141 9.95947C18.5173 9.95263 18.5214 9.9472 18.5273 9.94216C18.5407 9.93071 18.5681 9.91813 18.6056 9.91813C18.6432 9.91813 18.6684 9.93072 18.6793 9.94021C18.6839 9.94426 18.6871 9.94849 18.6896 9.95417C18.6921 9.95984 18.6964 9.97293 18.6961 9.99751L19.296 10.0068Z" fill="black" mask="url(#path-2-outside-2)"/>
</g>
</g>
</g>
<g id="Group_6">
<path id="Vector_3" d="M9.99773 10.3514C10.1906 10.3514 10.347 10.195 10.347 10.0021C10.347 9.80922 10.1906 9.65283 9.99773 9.65283C9.80482 9.65283 9.64844 9.80922 9.64844 10.0021C9.64844 10.195 9.80482 10.3514 9.99773 10.3514Z" fill="black"/>
<g id="Group_7">
<path id="Vector_4" d="M9.95018 10.0022C9.95415 9.95854 9.96209 9.97838 9.94622 10.0062C9.95018 9.99823 9.99385 9.93472 9.96209 9.96647C9.93431 9.99823 9.97797 9.95854 9.98591 9.95457C10.0137 9.93869 9.93431 9.95457 9.99385 9.95457C10.0375 9.95457 10.0177 9.96647 9.98988 9.9506C10.0018 9.95854 10.0613 10.0022 10.0296 9.96647C10.0018 9.93869 10.0375 9.97838 10.0415 9.99029C10.0574 10.026 10.0415 9.91884 10.0415 9.99823C10.0415 10.0419 10.0296 10.022 10.0454 9.99426C10.0335 10.0101 10.0256 10.03 10.0137 10.0459C10.0494 9.98632 10.0335 10.0459 10.0018 10.0459C9.94622 10.0498 10.0613 10.0419 10.0058 10.0459C9.95812 10.0459 9.95415 10.03 9.99385 10.0538C9.97797 10.0419 9.95812 10.034 9.94225 10.022C9.98194 10.0459 9.96209 10.0538 9.94225 10.0101C9.93431 9.97044 9.95415 10.0856 9.95018 10.0022C9.96209 10.2165 10.1248 10.3991 10.3471 10.3991C10.5535 10.3991 10.7559 10.2165 10.744 10.0022C10.7242 9.59734 10.4186 9.25598 9.99782 9.25598C9.58898 9.25598 9.25954 9.59734 9.2516 10.0022C9.24366 10.4031 9.58502 10.7325 9.97797 10.7484C10.4066 10.7643 10.7202 10.411 10.744 10.0022C10.7559 9.78786 10.5535 9.60527 10.3471 9.60527C10.1248 9.60527 9.96209 9.78786 9.95018 10.0022Z" fill="black"/>
</g>
</g>
</g>
</svg>
