<svg width="22" height="22" viewBox="0 0 22 22" fill="none" xmlns="http://www.w3.org/2000/svg">
<path d="M16.4653 16.6261C16.8387 16.3415 16.9106 15.8081 16.626 15.4348C16.3415 15.0614 15.8081 14.9895 15.4348 15.2741L16.4653 16.6261ZM11 17.6667L11 18.5168L11.0139 18.5166L11 17.6667ZM1.83337 11.0001L1.08439 10.5982C0.953803 10.8415 0.949596 11.1332 1.07311 11.3802L1.83337 11.0001ZM6.56591 6.72562C6.93901 6.44072 7.01051 5.9073 6.7256 5.5342C6.4407 5.16109 5.90728 5.0896 5.53417 5.3745L6.56591 6.72562ZM9.05631 3.70577C8.59923 3.81276 8.31542 4.27003 8.42241 4.72712C8.5294 5.18421 8.98668 5.46802 9.44377 5.36102L9.05631 3.70577ZM11 4.3334L10.998 5.1834H11V4.3334ZM20.1667 11.0001L20.9163 11.4008C21.0463 11.1576 21.0503 10.8665 20.927 10.6199L20.1667 11.0001ZM17.7163 13.1111C17.4141 13.4703 17.4602 14.0065 17.8194 14.3088C18.1786 14.611 18.7148 14.5649 19.0171 14.2057L17.7163 13.1111ZM13.3886 13.3462C13.7086 13.0027 13.6896 12.4649 13.3462 12.1449C13.0027 11.8248 12.4649 11.8438 12.1448 12.1873L13.3886 13.3462ZM10.3191 13.4847L10.1088 14.3082L10.1088 14.3082L10.3191 13.4847ZM8.51542 11.681L7.69185 11.8913L7.69185 11.8913L8.51542 11.681ZM9.81284 9.85526C10.1563 9.53524 10.1753 8.99738 9.85524 8.65393C9.53521 8.31048 8.99736 8.2915 8.65391 8.61153L9.81284 9.85526ZM15.4348 15.2741C14.1545 16.2499 12.5957 16.7905 10.9861 16.8168L11.0139 18.5166C12.9863 18.4844 14.8965 17.8219 16.4653 16.6261L15.4348 15.2741ZM11 16.8167C8.42296 16.8167 6.3404 15.3425 4.84931 13.752C4.11152 12.9651 3.54318 12.1748 3.15939 11.5806C2.96802 11.2843 2.82392 11.0388 2.72884 10.8698C2.68133 10.7853 2.64615 10.7201 2.62353 10.6774C2.61222 10.656 2.60406 10.6403 2.59906 10.6305C2.59657 10.6257 2.59486 10.6223 2.59396 10.6206C2.59351 10.6197 2.59325 10.6192 2.5932 10.6191C2.59317 10.619 2.59319 10.619 2.59327 10.6192C2.5933 10.6193 2.5934 10.6194 2.59341 10.6195C2.59352 10.6197 2.59364 10.6199 1.83337 11.0001C1.07311 11.3802 1.07325 11.3805 1.07341 11.3808C1.07348 11.3809 1.07365 11.3813 1.07379 11.3815C1.07406 11.3821 1.07439 11.3827 1.07477 11.3835C1.07553 11.385 1.0765 11.3869 1.07767 11.3892C1.08001 11.3939 1.08318 11.4001 1.08717 11.4078C1.09514 11.4233 1.10641 11.445 1.12094 11.4725C1.14999 11.5274 1.19213 11.6054 1.24716 11.7032C1.35715 11.8988 1.51904 12.1742 1.73132 12.5029C2.15482 13.1586 2.78439 14.0351 3.6091 14.9147C5.24302 16.6576 7.74379 18.5167 11 18.5167V16.8167ZM2.58236 11.402C3.56162 9.57701 4.91985 7.98257 6.56591 6.72562L5.53417 5.3745C3.69546 6.77856 2.17827 8.55961 1.08439 10.5982L2.58236 11.402ZM9.44377 5.36102C9.95322 5.24177 10.4748 5.18216 10.998 5.18339L11.002 3.4834C10.347 3.48186 9.69408 3.55648 9.05631 3.70577L9.44377 5.36102ZM11 5.1834C13.5771 5.1834 15.6597 6.65759 17.1508 8.24808C17.8886 9.03505 18.4569 9.82528 18.8407 10.4195C19.0321 10.7159 19.1762 10.9613 19.2712 11.1303C19.3188 11.2148 19.3539 11.28 19.3766 11.3228C19.3879 11.3441 19.396 11.3599 19.401 11.3696C19.4035 11.3744 19.4052 11.3778 19.4061 11.3796C19.4066 11.3805 19.4068 11.381 19.4069 11.3811C19.4069 11.3811 19.4069 11.3811 19.4068 11.3809C19.4068 11.3809 19.4067 11.3807 19.4067 11.3806C19.4066 11.3804 19.4064 11.3802 20.1667 11.0001C20.927 10.6199 20.9268 10.6196 20.9267 10.6193C20.9266 10.6192 20.9264 10.6189 20.9263 10.6186C20.926 10.618 20.9257 10.6174 20.9253 10.6166C20.9246 10.6151 20.9236 10.6132 20.9224 10.6109C20.9201 10.6063 20.9169 10.6001 20.9129 10.5923C20.9049 10.5768 20.8937 10.5551 20.8791 10.5276C20.8501 10.4727 20.808 10.3947 20.7529 10.2969C20.6429 10.1013 20.481 9.82593 20.2688 9.49725C19.8453 8.84151 19.2157 7.96507 18.391 7.08538C16.7571 5.34254 14.2563 3.48339 11 3.48339V5.1834ZM19.4171 10.5994C18.9391 11.4935 18.3691 12.3353 17.7163 13.1111L19.0171 14.2057C19.7461 13.3393 20.3826 12.3993 20.9163 11.4008L19.4171 10.5994ZM12.1448 12.1873C11.7335 12.6287 11.114 12.8104 10.5294 12.6611L10.1088 14.3082C11.2957 14.6114 12.5534 14.2424 13.3886 13.3462L12.1448 12.1873ZM10.5294 12.6611C9.94479 12.5118 9.48829 12.0553 9.33899 11.4707L7.69185 11.8913C7.99498 13.0783 8.92181 14.0051 10.1088 14.3082L10.5294 12.6611ZM9.33899 11.4707C9.18969 10.8861 9.3714 10.2666 9.81284 9.85526L8.65391 8.61153C7.75766 9.44666 7.38873 10.7044 7.69185 11.8913L9.33899 11.4707Z" fill="#2B71FF"/>
<path d="M1.83337 1.83337L20.1667 20.1667" stroke="#2B71FF" stroke-width="1.7" stroke-linecap="round" stroke-linejoin="round"/>
</svg>
