<svg width="60" height="60" viewBox="0 0 60 60" fill="none" xmlns="http://www.w3.org/2000/svg">
<circle cx="30" cy="30" r="30" fill="#2B71FF" fill-opacity="0.1"/>
<path d="M40.6851 17.667L47.6416 29.8171C47.8526 30.1855 47.7249 30.6551 47.3565 30.8661L45.8794 31.7118C45.511 31.9227 45.0414 31.795 44.8304 31.4266L37.8739 19.2765C37.6629 18.9081 37.7906 18.4385 38.159 18.2275L39.6361 17.3818C40.0045 17.1709 40.4741 17.2986 40.6851 17.667Z" fill="#2B71FF"/>
<path d="M18.1198 17.6902L11.3705 29.9567C11.1659 30.3286 11.3015 30.796 11.6735 31.0007L13.1647 31.8212C13.5366 32.0258 14.004 31.8902 14.2087 31.5183L20.9579 19.2518C21.1626 18.8798 21.027 18.4124 20.655 18.2078L19.1638 17.3873C18.7919 17.1826 18.3245 17.3182 18.1198 17.6902Z" fill="#2B71FF"/>
<path fill-rule="evenodd" clip-rule="evenodd" d="M43.8156 32.1603L41.4068 33.8465L33.0964 27.9449C33.0964 27.9449 30.6876 25.5361 28.0379 27.704C25.2678 29.8719 22.2568 30.4741 21.0524 28.4267C21.0524 28.4267 20.5706 27.9449 21.8955 27.1018C23.0999 26.2587 32.1329 19.8754 32.1329 19.8754L36.7096 19.6345L43.8156 32.1603Z" fill="#2B71FF"/>
<path fill-rule="evenodd" clip-rule="evenodd" d="M28.5199 20.9593L20.8117 26.4995C20.8117 26.4995 18.2825 28.7879 22.257 30.5945C22.257 30.5945 24.4249 31.9194 29.6039 28.1857C29.6039 28.1857 30.5674 26.9813 32.1331 28.547L40.2026 34.3282C40.2026 34.3282 41.7683 36.2552 38.8778 36.4961L34.0602 32.8829C34.0602 32.8829 32.8558 32.4011 33.3375 33.726L37.4325 36.6165C37.4325 36.6165 38.396 38.9049 35.7463 38.5436L30.8083 35.0508C30.8083 35.0508 29.7243 34.8099 30.3265 35.653L34.301 38.7845C34.301 38.7845 35.5055 41.0728 32.7353 40.7115L27.9177 37.3392C27.9177 37.3392 26.7133 36.737 27.1951 38.0618L31.4105 41.0728C31.4105 41.0728 32.2536 42.8794 29.8448 42.9999L14.9102 32.1602L21.8957 19.7549H26.1111C26.1111 19.7549 27.5564 19.7549 28.5199 20.9593Z" fill="#2B71FF"/>
</svg>
