<svg width="96" height="30" viewBox="0 0 96 30" fill="none" xmlns="http://www.w3.org/2000/svg">
<path d="M91.1381 2.36699e-05H77.425V18.4998H95.9399V4.78678C95.9399 4.1569 95.8155 3.53322 95.5741 2.95148C95.3326 2.36974 94.9786 1.84139 94.5325 1.3967C94.0864 0.95201 93.557 0.599734 92.9745 0.360064C92.392 0.120394 91.7679 -0.00195707 91.1381 2.36699e-05Z" fill="white"/>
<path d="M73.15 0H70.7868C69.5172 0 68.2997 0.504317 67.402 1.40201C66.5043 2.2997 66 3.51723 66 4.78676V7.15003H73.15V0Z" fill="white"/>
<path d="M66 11.425H73.15V18.5751H66V11.425Z" fill="white"/>
<path d="M88.85 29.9398H91.2132C91.8431 29.9398 92.4668 29.8155 93.0485 29.574C93.6303 29.3325 94.1586 28.9786 94.6033 28.5325C95.048 28.0864 95.4003 27.5569 95.64 26.9744C95.8796 26.3919 96.002 25.7679 96 25.138V22.85H88.85V29.9398Z" fill="white"/>
<path d="M77.425 22.85H84.5751V30H77.425V22.85Z" fill="white"/>
<path d="M66 22.85V25.2132C66 26.4828 66.5043 27.7003 67.402 28.598C68.2997 29.4957 69.5172 30 70.7868 30H73.15V22.85H66Z" fill="white"/>
<path fill-rule="evenodd" clip-rule="evenodd" d="M0 5.45882L1 10.2588L0.364706 10.7294L1.30588 11.4471L0.588235 12.0118L1.52941 12.8706L0.941177 13.2941L2.29412 14.8824L8.44697 13.0824L8.44693 13.0824L2.29404 14.8824L0.247018 21.2589L0.246986 21.2589H0.247024L2.1529 27.7648L8.82337 25.9295L8.82342 25.9296L8.82343 25.9295L8.82349 25.9295L8.82344 25.9294L8.83992 25.79L8.82361 25.9293L8.82358 25.9293L12.5295 27.6823L12.5295 27.6824L8.82358 25.9294L10.1177 26.9882L12.7412 28.8118H17.2471L19.8824 26.9882L21.1765 25.9295L21.1765 25.9295L21.1765 25.9296L21.1766 25.9295L27.847 27.7648L29.7647 21.2589H29.7647L29.7647 21.2589L27.6941 14.8824L21.5413 13.0825L21.5413 13.0824L27.6942 14.8824L29.0589 13.2941L28.4707 12.8706L29.4119 12.0118L28.6824 11.4471L29.6236 10.7294L29.0001 10.2588L30.0001 5.45882L28.506 1L28.2809 1.16703L28.5058 1L18.9646 4.56471L18.9646 4.56474H11.0354L11.0354 4.56471L1.48246 1L1.488 1.00419L1.48235 1L0 5.45882ZM13.2117 16.1882L6.58822 15.8941L6.58816 15.8942L6.5882 15.8943L6.58837 15.8943L6.58832 15.8942L6.58843 15.8943L13.2117 16.1884L12.5882 19.5881L12.5881 19.5883L12.5882 19.5883L13.3646 23.6001L12.8 23.9883L12.5059 26.5882L12.5059 26.5882L12.506 26.5882L12.8001 23.9883L13.3648 23.6001H16.6236L16.6236 23.6001L17.4118 19.5883L20.7411 18.6119L20.7412 18.6118L23.4117 15.8943L23.4118 15.8942L23.4116 15.894L16.8 16.1881L16.8 16.1883L16.7999 16.1884L16.8 16.1884L16.8 16.1883L16.8 16.1884L23.4117 15.8943L20.7411 18.6119L18.3882 17.5413L18.3862 17.5455L20.7294 18.6117L17.4137 19.5841L17.4117 19.5882L17.4117 19.5883L16.6235 23.6L16.6235 23.599L16.6235 23.6L13.3648 23.6L13.3647 23.6L13.3647 23.5995L12.5883 19.5883L13.2117 16.1887L13.2117 16.1883L13.2117 16.1882ZM21.1765 25.9295L17.4706 27.6824L17.4706 27.6822L21.1764 25.9293L17.1883 23.9883L17.1884 23.9882L21.1764 25.9293L20.6235 21.306L20.6235 21.306L20.6236 21.306L20.6299 21.3059L21.1765 25.9294L21.1765 25.9294L21.1765 25.9295ZM9.28786 21.156L9.28769 21.156L6.58827 15.8944L6.58863 15.8948L9.28786 21.156ZM12.5881 19.5883L9.27067 18.6119L9.27067 18.6118L9.27083 18.6117L12.588 19.5881L12.5881 19.5883ZM11.6139 17.5457L12.5744 19.5592L11.6234 17.5413L11.6139 17.5457Z" fill="white"/>
<path d="M1 10.2588L1.29761 10.6606C1.45437 10.5445 1.52928 10.3478 1.48949 10.1568L1 10.2588ZM0 5.45882L-0.474467 5.30109C-0.502303 5.38482 -0.507486 5.47442 -0.48949 5.5608L0 5.45882ZM0.364706 10.7294L0.0670922 10.3276C-0.0592291 10.4212 -0.134189 10.5687 -0.135282 10.7259C-0.136375 10.8831 -0.0634733 11.0317 0.0615347 11.127L0.364706 10.7294ZM1.30588 11.4471L1.61508 11.84C1.73661 11.7444 1.80705 11.5979 1.80587 11.4433C1.80469 11.2886 1.73203 11.1432 1.60905 11.0495L1.30588 11.4471ZM0.588235 12.0118L0.27904 11.6188C0.163586 11.7097 0.0939283 11.8467 0.0885682 11.9935C0.0832082 12.1403 0.142688 12.2821 0.25121 12.3811L0.588235 12.0118ZM1.52941 12.8706L1.82156 13.2764C1.94382 13.1883 2.01987 13.0499 2.02858 12.8995C2.03728 12.7491 1.97772 12.6028 1.86644 12.5012L1.52941 12.8706ZM0.941177 13.2941L0.649024 12.8884C0.535663 12.97 0.461614 13.0953 0.444808 13.234C0.428003 13.3726 0.469972 13.512 0.560555 13.6184L0.941177 13.2941ZM2.29412 14.8824L1.9135 15.2066C2.04131 15.3566 2.24534 15.4176 2.43451 15.3622L2.29412 14.8824ZM8.44697 13.0824L8.863 13.3597C8.97959 13.1848 8.97436 12.9557 8.8499 12.7863C8.72543 12.6169 8.50832 12.5435 8.30659 12.6025L8.44697 13.0824ZM8.44693 13.0824L8.58732 13.5623C8.70015 13.5293 8.79774 13.4576 8.86296 13.3598L8.44693 13.0824ZM2.29404 14.8824L2.15366 14.4025C1.99443 14.4491 1.86868 14.5716 1.81797 14.7296L2.29404 14.8824ZM0.247018 21.2589L0.516371 21.6801C0.614413 21.6174 0.687518 21.5225 0.723088 21.4117L0.247018 21.2589ZM0.246986 21.2589L-0.0223676 20.8377C-0.209486 20.9573 -0.295251 21.186 -0.232923 21.3992C-0.170594 21.6124 0.0248848 21.7589 0.246986 21.7589V21.2589ZM0.247024 21.2589L0.726859 21.1183C0.664446 20.9053 0.469028 20.7589 0.247024 20.7589V21.2589ZM2.1529 27.7648L1.67307 27.9053C1.7498 28.1672 2.02239 28.3193 2.28554 28.2468L2.1529 27.7648ZM8.82337 25.9295L9.23848 25.6508C9.11862 25.4723 8.89805 25.3904 8.69073 25.4474L8.82337 25.9295ZM8.82342 25.9296L8.40831 26.2083C8.52502 26.3821 8.73769 26.4648 8.94118 26.4155C9.14467 26.3662 9.29589 26.1953 9.32007 25.9873L8.82342 25.9296ZM8.82343 25.9295L8.6937 25.4466C8.49584 25.4998 8.35043 25.6682 8.32677 25.8717L8.82343 25.9295ZM8.82349 25.9295L8.95322 26.4123C9.10805 26.3707 9.23355 26.2574 9.29067 26.1076C9.3478 25.9578 9.32962 25.7897 9.2418 25.6556L8.82349 25.9295ZM8.82344 25.9294L8.32689 25.8707C8.31311 25.9873 8.3408 26.105 8.40513 26.2033L8.82344 25.9294ZM8.83992 25.79L9.33653 25.8481C9.36862 25.5739 9.17248 25.3256 8.89834 25.2934C8.6242 25.2611 8.37579 25.4571 8.34338 25.7313L8.83992 25.79ZM8.82361 25.9293L9.161 26.2983C9.24972 26.2172 9.30624 26.1068 9.32022 25.9874L8.82361 25.9293ZM8.82358 25.9293L8.48619 25.5603C8.36324 25.6727 8.30435 25.839 8.32915 26.0038C8.35395 26.1685 8.45918 26.3101 8.60978 26.3813L8.82358 25.9293ZM12.5295 27.6823L13.0294 27.6762C13.0271 27.4851 12.916 27.312 12.7433 27.2303L12.5295 27.6823ZM12.5295 27.6824L12.3157 28.1343C12.4715 28.2081 12.6544 28.1963 12.7995 28.1031C12.9446 28.01 13.0315 27.8487 13.0294 27.6763L12.5295 27.6824ZM8.82358 25.9294L9.03737 25.4774C8.80901 25.3694 8.53595 25.4487 8.40096 25.6622C8.26596 25.8757 8.31144 26.1564 8.50696 26.3164L8.82358 25.9294ZM10.1177 26.9882L9.80108 27.3752C9.81118 27.3835 9.82161 27.3913 9.83233 27.3988L10.1177 26.9882ZM12.7412 28.8118L12.4559 29.2223C12.5396 29.2806 12.6392 29.3118 12.7412 29.3118V28.8118ZM17.2471 28.8118V29.3118C17.3488 29.3118 17.448 29.2808 17.5316 29.2229L17.2471 28.8118ZM19.8824 26.9882L20.1669 27.3994C20.1779 27.3918 20.1886 27.3837 20.199 27.3752L19.8824 26.9882ZM21.1765 25.9295L21.6733 25.873C21.6503 25.6702 21.5062 25.5018 21.3095 25.4475L21.1765 25.9295ZM21.1765 25.9296L20.6797 25.986C20.7034 26.1946 20.8549 26.3662 21.0589 26.4155C21.263 26.4649 21.4761 26.3816 21.5925 26.2069L21.1765 25.9296ZM21.1766 25.9295L21.3092 25.4474C21.1013 25.3902 20.8801 25.4727 20.7605 25.6521L21.1766 25.9295ZM27.847 27.7648L27.7144 28.2468C27.9772 28.3192 28.2496 28.1676 28.3266 27.9061L27.847 27.7648ZM29.7647 21.2589V20.7589C29.543 20.7589 29.3478 20.9049 29.2851 21.1175L29.7647 21.2589ZM29.7647 21.2589V21.7589C29.9826 21.7589 30.1754 21.6178 30.2413 21.4102C30.3072 21.2025 30.2311 20.9761 30.0531 20.8504L29.7647 21.2589ZM29.7647 21.2589L29.2891 21.4133C29.3225 21.516 29.3881 21.6051 29.4763 21.6674L29.7647 21.2589ZM27.6941 14.8824L28.1697 14.728C28.1186 14.5708 27.9932 14.449 27.8345 14.4025L27.6941 14.8824ZM21.5413 13.0825L21.1263 13.3614C21.1916 13.4584 21.2887 13.5295 21.401 13.5624L21.5413 13.0825ZM21.5413 13.0824L21.6817 12.6025C21.4796 12.5434 21.2621 12.6171 21.1378 12.787C21.0135 12.9569 21.0088 13.1865 21.1263 13.3612L21.5413 13.0824ZM27.6942 14.8824L27.5538 15.3622C27.7422 15.4174 27.9455 15.3571 28.0734 15.2082L27.6942 14.8824ZM29.0589 13.2941L29.4381 13.62C29.5294 13.5137 29.572 13.3741 29.5554 13.235C29.5389 13.0959 29.4647 12.9702 29.3511 12.8884L29.0589 13.2941ZM28.4707 12.8706L28.1337 12.5012C28.0224 12.6028 27.9628 12.7491 27.9715 12.8995C27.9802 13.0499 28.0563 13.1883 28.1785 13.2764L28.4707 12.8706ZM29.4119 12.0118L29.7489 12.3811C29.8579 12.2816 29.9174 12.139 29.9114 11.9916C29.9055 11.8441 29.8347 11.7068 29.7179 11.6164L29.4119 12.0118ZM28.6824 11.4471L28.3793 11.0495C28.2558 11.1436 28.183 11.2899 28.1824 11.4452C28.1819 11.6006 28.2535 11.7473 28.3764 11.8424L28.6824 11.4471ZM29.6236 10.7294L29.9268 11.127C30.0512 11.0322 30.124 10.8846 30.1236 10.7282C30.1232 10.5718 30.0497 10.4245 29.9248 10.3303L29.6236 10.7294ZM29.0001 10.2588L28.5106 10.1568C28.4711 10.3462 28.5445 10.5414 28.6989 10.6579L29.0001 10.2588ZM30.0001 5.45882L30.4896 5.5608C30.5077 5.47403 30.5023 5.38401 30.4742 5.29996L30.0001 5.45882ZM28.506 1L28.9801 0.841136C28.9292 0.689293 28.8086 0.57101 28.6559 0.522999C28.5031 0.474989 28.3366 0.503061 28.208 0.598502L28.506 1ZM28.2809 1.16703L27.9828 0.765626C27.7611 0.930257 27.7149 1.2434 27.8795 1.46508C28.0441 1.68677 28.3572 1.73308 28.5789 1.56852L28.2809 1.16703ZM28.5058 1L28.8039 1.4014C29.0039 1.25289 29.0641 0.979874 28.945 0.761083C28.826 0.542292 28.5641 0.444453 28.3308 0.531622L28.5058 1ZM18.9646 4.56471L18.7896 4.09633C18.659 4.14516 18.5546 4.24637 18.5018 4.37552L18.9646 4.56471ZM18.9646 4.56474V5.06474C19.1677 5.06474 19.3506 4.94191 19.4275 4.75392L18.9646 4.56474ZM11.0354 4.56474L10.5726 4.75392C10.6494 4.94191 10.8323 5.06474 11.0354 5.06474V4.56474ZM11.0354 4.56471L11.4982 4.37552C11.4454 4.24631 11.341 4.14506 11.2102 4.09626L11.0354 4.56471ZM1.48246 1L1.65726 0.531552C1.42469 0.444769 1.16367 0.541748 1.04419 0.759329C0.924705 0.976911 0.982942 1.24921 1.18097 1.39888L1.48246 1ZM1.488 1.00419L1.19001 1.40569C1.41107 1.56976 1.72316 1.52427 1.8882 1.30393C2.05323 1.08359 2.0091 0.771302 1.78949 0.60531L1.488 1.00419ZM1.48235 1L1.78035 0.598502C1.65159 0.502936 1.4848 0.474923 1.33189 0.523178C1.17897 0.571433 1.05847 0.6901 1.00789 0.842262L1.48235 1ZM13.2117 16.1882L13.7087 16.133C13.6814 15.8882 13.48 15.6996 13.2339 15.6887L13.2117 16.1882ZM6.58822 15.8941L6.6104 15.3946C6.43447 15.3868 6.26739 15.4721 6.17057 15.6192L6.58822 15.8941ZM6.58816 15.8942L6.17051 15.6193C6.07131 15.77 6.06101 15.9625 6.14356 16.1229L6.58816 15.8942ZM6.5882 15.8943L6.14359 16.123C6.22531 16.2818 6.38555 16.385 6.56397 16.3937L6.5882 15.8943ZM6.58837 15.8943L6.56414 16.3937C6.74246 16.4023 6.91186 16.3153 7.0086 16.1652C7.10534 16.0152 7.11474 15.8249 7.03326 15.6661L6.58837 15.8943ZM6.58832 15.8942L6.94412 15.5429C6.77072 15.3672 6.49511 15.3444 6.29517 15.4891C6.09523 15.6338 6.03079 15.9028 6.14343 16.1224L6.58832 15.8942ZM6.58843 15.8943L6.23262 16.2456C6.32117 16.3352 6.44033 16.3882 6.56625 16.3938L6.58843 15.8943ZM13.2117 16.1884L13.7035 16.2786C13.7295 16.1364 13.6928 15.9899 13.6028 15.8769C13.5128 15.7638 13.3782 15.6953 13.2338 15.6889L13.2117 16.1884ZM12.5882 19.5881L13.0785 19.6862L13.08 19.6783L12.5882 19.5881ZM12.5881 19.5883L12.0978 19.4902C12.0478 19.7405 12.1942 19.9883 12.4376 20.0651L12.5881 19.5883ZM12.5882 19.5883L13.0791 19.4933C13.0442 19.3133 12.9136 19.1667 12.7387 19.1115L12.5882 19.5883ZM13.3646 23.6001L13.6479 24.0121C13.8118 23.8994 13.8933 23.7003 13.8555 23.5051L13.3646 23.6001ZM12.8 23.9883L12.5168 23.5762C12.3974 23.6583 12.3195 23.7881 12.3032 23.9321L12.8 23.9883ZM12.5059 26.5882L12.0091 26.532C12.0068 26.5526 12.0057 26.5734 12.006 26.5943L12.5059 26.5882ZM12.5059 26.5882L12.006 26.5943C12.0084 26.7931 12.1283 26.9716 12.3115 27.0489C12.4946 27.1262 12.7062 27.0877 12.8503 26.9507L12.5059 26.5882ZM12.506 26.5882L12.8503 26.9507C12.9356 26.8697 12.9896 26.7613 13.0028 26.6444L12.506 26.5882ZM12.8001 23.9883L12.5168 23.5763C12.3974 23.6584 12.3195 23.7882 12.3032 23.9321L12.8001 23.9883ZM13.3648 23.6001V23.1001C13.2636 23.1001 13.1649 23.1308 13.0815 23.1881L13.3648 23.6001ZM16.6236 23.6001V24.1001C16.8476 24.1001 17.0442 23.9511 17.1049 23.7355C17.1656 23.5199 17.0755 23.2903 16.8843 23.1735L16.6236 23.6001ZM16.6236 23.6001L16.1329 23.5037C16.0926 23.709 16.1843 23.9176 16.3628 24.0267L16.6236 23.6001ZM17.4118 19.5883L17.2711 19.1085C17.0921 19.161 16.9572 19.3089 16.9212 19.4919L17.4118 19.5883ZM20.7411 18.6119L20.8818 19.0917C20.9042 19.0851 20.9262 19.077 20.9475 19.0673L20.7411 18.6119ZM20.7412 18.6118L20.9476 19.0673C21.0037 19.0418 21.0546 19.0063 21.0978 18.9623L20.7412 18.6118ZM23.4117 15.8943L23.7683 16.2448C23.8028 16.2097 23.832 16.1697 23.8548 16.126L23.4117 15.8943ZM23.4118 15.8942L23.8549 16.1259C23.9392 15.9646 23.9292 15.7702 23.8288 15.6184L23.4118 15.8942ZM23.4116 15.894L23.8287 15.6182C23.7317 15.4716 23.565 15.3866 23.3894 15.3945L23.4116 15.894ZM16.8 16.1881L16.7778 15.6886C16.5289 15.6996 16.3261 15.8922 16.3023 16.1402L16.8 16.1881ZM16.8 16.1883L17.2734 16.3489C17.2858 16.3124 17.294 16.2745 17.2977 16.2361L16.8 16.1883ZM16.7999 16.1884L16.3264 16.0277C16.2736 16.1834 16.3007 16.355 16.3988 16.4869C16.4969 16.6187 16.6535 16.6939 16.8178 16.6881L16.7999 16.1884ZM16.8 16.1884L16.8178 16.6881C17.0582 16.6795 17.2585 16.5009 17.2944 16.263L16.8 16.1884ZM16.8 16.1883L17.2927 16.103C17.2508 15.8613 17.0399 15.6857 16.7946 15.6883C16.5493 15.6909 16.3422 15.8711 16.3056 16.1136L16.8 16.1883ZM16.8 16.1884L16.3073 16.2736C16.3502 16.5216 16.5708 16.6991 16.8222 16.6879L16.8 16.1884ZM23.4117 15.8943L23.7683 16.2447C23.9123 16.0981 23.952 15.8784 23.8684 15.6907C23.7847 15.503 23.5947 15.3856 23.3895 15.3948L23.4117 15.8943ZM18.3882 17.5413L18.5952 17.0862C18.3471 16.9733 18.0543 17.08 17.9369 17.326L18.3882 17.5413ZM18.3862 17.5455L17.9349 17.3302C17.8771 17.4513 17.8704 17.5905 17.9164 17.7166C17.9623 17.8427 18.057 17.945 18.1791 18.0006L18.3862 17.5455ZM20.7294 18.6117L20.8701 19.0914C21.0706 19.0327 21.2134 18.8554 21.2282 18.6471C21.243 18.4387 21.1266 18.2431 20.9365 18.1566L20.7294 18.6117ZM17.4137 19.5841L17.273 19.1043C17.1366 19.1443 17.0237 19.2405 16.9625 19.3688L17.4137 19.5841ZM17.4117 19.5882L16.9605 19.3729C16.9129 19.4725 16.8997 19.5851 16.9228 19.693L17.4117 19.5882ZM17.4117 19.5883L17.9024 19.6847C17.9154 19.6182 17.9148 19.5498 17.9006 19.4835L17.4117 19.5883ZM16.6235 23.6L16.1237 23.6138C16.1307 23.8684 16.328 24.0771 16.5819 24.0983C16.8358 24.1195 17.065 23.9464 17.1141 23.6964L16.6235 23.6ZM16.6235 23.599L17.1233 23.5853C17.1158 23.3123 16.8906 23.0958 16.6175 23.099C16.3444 23.1023 16.1245 23.3241 16.1235 23.5972L16.6235 23.599ZM16.6235 23.6V24.1C16.8989 24.1 17.1225 23.8773 17.1235 23.6019L16.6235 23.6ZM13.3648 23.6L13.3448 24.0996C13.3514 24.0999 13.3581 24.1 13.3648 24.1L13.3648 23.6ZM13.3647 23.6L12.8647 23.601C12.8652 23.869 13.0769 24.0889 13.3447 24.0996L13.3647 23.6ZM13.3647 23.5995L13.8647 23.5986C13.8646 23.567 13.8615 23.5355 13.8555 23.5045L13.3647 23.5995ZM12.5883 19.5883L12.0965 19.4981C12.0852 19.5593 12.0856 19.6221 12.0974 19.6833L12.5883 19.5883ZM13.2117 16.1887L13.7035 16.2788C13.711 16.2381 13.7134 16.1966 13.7106 16.1553L13.2117 16.1887ZM13.2117 16.1883L13.7106 16.1549C13.7101 16.1476 13.7095 16.1403 13.7087 16.1331L13.2117 16.1883ZM17.4706 27.6824L16.971 27.6645C16.9647 27.8389 17.0499 28.004 17.1957 28.0999C17.3414 28.1959 17.5267 28.209 17.6844 28.1343L17.4706 27.6824ZM17.4706 27.6822L17.2568 27.2302C17.0879 27.3101 16.9776 27.4776 16.971 27.6643L17.4706 27.6822ZM21.1764 25.9293L21.3902 26.3813C21.564 26.2991 21.6753 26.1244 21.6764 25.9321C21.6774 25.7398 21.5681 25.5639 21.3952 25.4798L21.1764 25.9293ZM17.1883 23.9883L16.8858 23.5902C16.7475 23.6953 16.6737 23.8646 16.6908 24.0374C16.7078 24.2102 16.8134 24.3618 16.9695 24.4378L17.1883 23.9883ZM17.1884 23.9882L17.4072 23.5386C17.2376 23.4561 17.036 23.476 16.8859 23.5901L17.1884 23.9882ZM21.1764 25.9293L20.9576 26.3789C21.1221 26.4589 21.3172 26.4428 21.4663 26.3367C21.6154 26.2306 21.6946 26.0516 21.6729 25.8699L21.1764 25.9293ZM20.6235 21.306L21.12 21.2467C21.1175 21.2258 21.1137 21.2051 21.1086 21.1848L20.6235 21.306ZM20.6235 21.306L20.3166 20.9113C20.1603 21.0329 20.0904 21.2352 20.1385 21.4273L20.6235 21.306ZM20.6236 21.306L20.6166 20.806C20.5078 20.8075 20.4025 20.8445 20.3166 20.9113L20.6236 21.306ZM20.6299 21.3059L21.1264 21.2472C21.0963 20.9929 20.879 20.8024 20.6229 20.8059L20.6299 21.3059ZM21.1765 25.9294L21.6005 26.1944C21.6608 26.0979 21.6864 25.9837 21.673 25.8707L21.1765 25.9294ZM21.1765 25.9294L21.5861 26.2162C21.5911 26.209 21.5959 26.2018 21.6005 26.1944L21.1765 25.9294ZM9.28769 21.156L8.84282 21.3842C8.93116 21.5564 9.11093 21.6622 9.30435 21.6557L9.28769 21.156ZM9.28786 21.156L9.30452 21.6557C9.47567 21.65 9.632 21.5571 9.71883 21.4095C9.80565 21.2619 9.8109 21.0801 9.73273 20.9277L9.28786 21.156ZM6.58827 15.8944L6.94438 15.5434C6.77107 15.3676 6.49535 15.3446 6.29528 15.4892C6.09521 15.6339 6.0307 15.903 6.1434 16.1226L6.58827 15.8944ZM6.58863 15.8948L7.0335 15.6665C7.01032 15.6213 6.98039 15.58 6.94474 15.5438L6.58863 15.8948ZM9.27067 18.6119L8.77095 18.6285C8.77813 18.844 8.92265 19.0307 9.1295 19.0915L9.27067 18.6119ZM12.5881 19.5883L12.4469 20.0679C12.636 20.1236 12.8402 20.063 12.9682 19.9131C13.0963 19.7632 13.1243 19.5521 13.0398 19.374L12.5881 19.5883ZM9.27067 18.6118L9.09174 18.1449C8.89265 18.2212 8.76384 18.4154 8.77095 18.6285L9.27067 18.6118ZM9.27083 18.6117L9.412 18.1321C9.30679 18.1011 9.19431 18.1056 9.0919 18.1449L9.27083 18.6117ZM12.588 19.5881L13.0397 19.3738C12.9787 19.2451 12.8657 19.1486 12.7292 19.1084L12.588 19.5881ZM12.5744 19.5592L12.1231 19.7744C12.2418 20.0233 12.5395 20.1291 12.7886 20.011C13.0377 19.8928 13.1442 19.5954 13.0267 19.346L12.5744 19.5592ZM11.6139 17.5457L11.4068 17.0905C11.2847 17.1461 11.19 17.2484 11.1441 17.3745C11.0982 17.5006 11.1048 17.6398 11.1626 17.7609L11.6139 17.5457ZM11.6234 17.5413L12.0757 17.3282C11.9591 17.0807 11.6653 16.9729 11.4163 17.0862L11.6234 17.5413ZM1.48949 10.1568L0.48949 5.35685L-0.48949 5.5608L0.51051 10.3608L1.48949 10.1568ZM0.66232 11.1312L1.29761 10.6606L0.702386 9.85705L0.0670922 10.3276L0.66232 11.1312ZM1.60905 11.0495L0.667878 10.3318L0.0615347 11.127L1.00271 11.8447L1.60905 11.0495ZM0.89743 12.4047L1.61508 11.84L0.996688 11.0541L0.27904 11.6188L0.89743 12.4047ZM1.86644 12.5012L0.92526 11.6424L0.25121 12.3811L1.19239 13.2399L1.86644 12.5012ZM1.23333 13.6999L1.82156 13.2764L1.23726 12.4648L0.649024 12.8884L1.23333 13.6999ZM2.67474 14.5581L1.3218 12.9699L0.560555 13.6184L1.9135 15.2066L2.67474 14.5581ZM8.30659 12.6025L2.15373 14.4025L2.43451 15.3622L8.58736 13.5623L8.30659 12.6025ZM8.86296 13.3598L8.863 13.3597L8.03095 12.805L8.0309 12.8051L8.86296 13.3598ZM2.43443 15.3623L8.58732 13.5623L8.30654 12.6026L2.15366 14.4025L2.43443 15.3623ZM0.723088 21.4117L2.77011 15.0353L1.81797 14.7296L-0.229051 21.106L0.723088 21.4117ZM0.516339 21.6801L0.516371 21.6801L-0.0223348 20.8376L-0.0223676 20.8377L0.516339 21.6801ZM0.247024 20.7589H0.246986V21.7589H0.247024V20.7589ZM2.63274 27.6242L0.726859 21.1183L-0.23281 21.3995L1.67307 27.9053L2.63274 27.6242ZM8.69073 25.4474L2.02026 27.2827L2.28554 28.2468L8.95601 26.4116L8.69073 25.4474ZM9.23853 25.6509L9.23848 25.6508L8.40826 26.2082L8.40831 26.2083L9.23853 25.6509ZM8.32677 25.8717L8.32676 25.8718L9.32007 25.9873L9.32008 25.9872L8.32677 25.8717ZM8.69376 25.4466L8.6937 25.4466L8.95315 26.4124L8.95322 26.4123L8.69376 25.4466ZM8.40513 26.2033L8.40518 26.2034L9.2418 25.6556L9.24175 25.6555L8.40513 26.2033ZM8.34338 25.7313L8.32689 25.8707L9.31998 25.9881L9.33646 25.8487L8.34338 25.7313ZM9.32022 25.9874L9.33653 25.8481L8.34331 25.7318L8.327 25.8712L9.32022 25.9874ZM9.16096 26.2983L9.161 26.2983L8.48623 25.5603L8.48619 25.5603L9.16096 26.2983ZM12.7433 27.2303L9.03737 25.4773L8.60978 26.3813L12.3157 28.1343L12.7433 27.2303ZM13.0294 27.6763L13.0294 27.6762L12.0295 27.6884L12.0295 27.6884L13.0294 27.6763ZM8.60978 26.3814L12.3157 28.1343L12.7433 27.2304L9.03737 25.4774L8.60978 26.3814ZM10.4343 26.6013L9.1402 25.5424L8.50696 26.3164L9.80108 27.3752L10.4343 26.6013ZM13.0266 28.4012L10.4031 26.5777L9.83233 27.3988L12.4559 29.2223L13.0266 28.4012ZM17.2471 28.3118H12.7412V29.3118H17.2471V28.3118ZM19.5979 26.5771L16.9626 28.4006L17.5316 29.2229L20.1669 27.3994L19.5979 26.5771ZM20.8598 25.5425L19.5658 26.6013L20.199 27.3752L21.4931 26.3164L20.8598 25.5425ZM21.3095 25.4475L21.3094 25.4475L21.0435 26.4115L21.0435 26.4115L21.3095 25.4475ZM21.6733 25.8731L21.6733 25.873L20.6797 25.9859L20.6797 25.986L21.6733 25.8731ZM20.7605 25.6521L20.7605 25.6522L21.5925 26.2069L21.5926 26.2068L20.7605 25.6521ZM27.9797 27.2827L21.3092 25.4474L21.0439 26.4116L27.7144 28.2468L27.9797 27.2827ZM29.2851 21.1175L27.3674 27.6234L28.3266 27.9061L30.2443 21.4003L29.2851 21.1175ZM29.7647 20.7589H29.7647V21.7589H29.7647V20.7589ZM29.4763 21.6674L29.4764 21.6674L30.0531 20.8504L30.053 20.8504L29.4763 21.6674ZM27.2186 15.0369L29.2891 21.4133L30.2402 21.1045L28.1697 14.728L27.2186 15.0369ZM21.401 13.5624L27.5537 15.3623L27.8345 14.4025L21.6817 12.6026L21.401 13.5624ZM21.1263 13.3612L21.1263 13.3614L21.9563 12.8036L21.9563 12.8035L21.1263 13.3612ZM27.8346 14.4025L21.6817 12.6025L21.4009 13.5622L27.5538 15.3622L27.8346 14.4025ZM28.6797 12.9683L27.315 14.5565L28.0734 15.2082L29.4381 13.62L28.6797 12.9683ZM28.1785 13.2764L28.7668 13.6999L29.3511 12.8884L28.7628 12.4648L28.1785 13.2764ZM29.0748 11.6424L28.1337 12.5012L28.8077 13.2399L29.7489 12.3811L29.0748 11.6424ZM28.3764 11.8424L29.1058 12.4071L29.7179 11.6164L28.9885 11.0517L28.3764 11.8424ZM29.3204 10.3318L28.3793 11.0495L28.9856 11.8447L29.9268 11.127L29.3204 10.3318ZM28.6989 10.6579L29.3224 11.1285L29.9248 10.3303L29.3013 9.85973L28.6989 10.6579ZM29.5106 5.35685L28.5106 10.1568L29.4896 10.3608L30.4896 5.5608L29.5106 5.35685ZM28.0319 1.15886L29.526 5.61769L30.4742 5.29996L28.9801 0.841136L28.0319 1.15886ZM28.5789 1.56852L28.804 1.4015L28.208 0.598502L27.9829 0.765528L28.5789 1.56852ZM28.2077 0.5986L27.9828 0.765626L28.5791 1.56843L28.8039 1.4014L28.2077 0.5986ZM19.1396 5.03308L28.6808 1.46838L28.3308 0.531622L18.7896 4.09633L19.1396 5.03308ZM19.4275 4.75392L19.4275 4.75389L18.5018 4.37552L18.5018 4.37555L19.4275 4.75392ZM18.9646 4.06474H11.0354V5.06474H18.9646V4.06474ZM10.5726 4.75389L10.5726 4.75392L11.4982 4.37555L11.4982 4.37552L10.5726 4.75389ZM1.30765 1.46845L10.8606 5.03315L11.2102 4.09626L1.65726 0.531552L1.30765 1.46845ZM1.78949 0.60531L1.78394 0.601118L1.18097 1.39888L1.18652 1.40307L1.78949 0.60531ZM1.18436 1.4015L1.19001 1.40569L1.78599 0.602695L1.78035 0.598502L1.18436 1.4015ZM0.474467 5.61656L1.95682 1.15774L1.00789 0.842262L-0.474467 5.30109L0.474467 5.61656ZM13.2339 15.6887L6.6104 15.3946L6.56604 16.3936L13.1895 16.6877L13.2339 15.6887ZM6.17057 15.6192L6.17051 15.6193L7.00582 16.1691L7.00588 16.169L6.17057 15.6192ZM6.14356 16.1229L6.14359 16.123L7.0328 15.6655L7.03277 15.6654L6.14356 16.1229ZM6.56397 16.3937L6.56414 16.3937L6.6126 15.3949L6.61243 15.3948L6.56397 16.3937ZM7.03326 15.6661L7.03321 15.666L6.14343 16.1224L6.14349 16.1225L7.03326 15.6661ZM6.23251 16.2454L6.23262 16.2456L6.94424 15.543L6.94412 15.5429L6.23251 16.2454ZM6.56625 16.3938L13.1895 16.6879L13.2338 15.6889L6.61061 15.3948L6.56625 16.3938ZM12.7199 16.0982L12.0964 19.4979L13.08 19.6783L13.7035 16.2786L12.7199 16.0982ZM12.0979 19.4901L12.0978 19.4902L13.0784 19.6864L13.0785 19.6862L12.0979 19.4901ZM12.4376 20.0651L12.4376 20.0651L12.7387 19.1115L12.7387 19.1115L12.4376 20.0651ZM12.0973 19.6833L12.8738 23.6951L13.8555 23.5051L13.0791 19.4933L12.0973 19.6833ZM13.0814 23.1881L12.5168 23.5762L13.0833 24.4003L13.6479 24.0121L13.0814 23.1881ZM12.3032 23.9321L12.0091 26.532L13.0028 26.6444L13.2969 24.0445L12.3032 23.9321ZM12.006 26.5943L12.006 26.5943L13.0059 26.5821L13.0059 26.5821L12.006 26.5943ZM12.8503 26.9507L12.8503 26.9507L12.1616 26.2257L12.1616 26.2257L12.8503 26.9507ZM13.0028 26.6444L13.2969 24.0445L12.3032 23.9321L12.0091 26.532L13.0028 26.6444ZM13.0833 24.4004L13.648 24.0121L13.0815 23.1881L12.5168 23.5763L13.0833 24.4004ZM13.3648 24.1001H16.6236V23.1001H13.3648V24.1001ZM16.8843 23.1735L16.8843 23.1734L16.3628 24.0267L16.3629 24.0267L16.8843 23.1735ZM17.1142 23.6965L17.9024 19.6847L16.9212 19.4919L16.1329 23.5037L17.1142 23.6965ZM17.5525 20.0681L20.8818 19.0917L20.6004 18.1321L17.2711 19.1085L17.5525 20.0681ZM20.9475 19.0673L20.9476 19.0673L20.5348 18.1564L20.5347 18.1565L20.9475 19.0673ZM21.0978 18.9623L23.7683 16.2448L23.0551 15.5439L20.3846 18.2614L21.0978 18.9623ZM23.8548 16.126L23.8549 16.1259L22.9687 15.6625L22.9686 15.6627L23.8548 16.126ZM23.8288 15.6184L23.8287 15.6182L22.9946 16.1698L22.9947 16.17L23.8288 15.6184ZM23.3894 15.3945L16.7778 15.6886L16.8222 16.6876L23.4338 16.3935L23.3894 15.3945ZM17.2977 16.2361L17.2977 16.2359L16.3023 16.1402L16.3022 16.1404L17.2977 16.2361ZM17.2734 16.349L17.2734 16.3489L16.3265 16.0276L16.3264 16.0277L17.2734 16.349ZM16.8178 16.6881L16.8178 16.6881L16.7821 15.6887L16.7821 15.6887L16.8178 16.6881ZM17.2944 16.263L17.2944 16.2629L16.3056 16.1136L16.3056 16.1137L17.2944 16.263ZM16.3073 16.2735L16.3073 16.2736L17.2927 16.1031L17.2927 16.103L16.3073 16.2735ZM16.8222 16.6879L23.4339 16.3938L23.3895 15.3948L16.7778 15.6889L16.8222 16.6879ZM23.0551 15.5438L20.3845 18.2615L21.0977 18.9624L23.7683 16.2447L23.0551 15.5438ZM20.9482 18.1568L18.5952 17.0862L18.1811 17.9964L20.534 19.067L20.9482 18.1568ZM17.9369 17.326L17.9349 17.3302L18.8374 17.7608L18.8394 17.7566L17.9369 17.326ZM18.1791 18.0006L20.5223 19.0668L20.9365 18.1566L18.5932 17.0904L18.1791 18.0006ZM20.5887 18.1319L17.273 19.1043L17.5544 20.0639L20.8701 19.0914L20.5887 18.1319ZM16.9625 19.3688L16.9605 19.3729L17.863 19.8036L17.865 19.7994L16.9625 19.3688ZM16.9228 19.693L16.9228 19.693L17.9006 19.4835L17.9006 19.4835L16.9228 19.693ZM16.9211 19.4919L16.1329 23.5036L17.1141 23.6964L17.9024 19.6847L16.9211 19.4919ZM17.1233 23.5863L17.1233 23.5853L16.1237 23.6127L16.1237 23.6138L17.1233 23.5863ZM17.1235 23.6019L17.1235 23.6008L16.1235 23.5972L16.1235 23.5982L17.1235 23.6019ZM13.3648 24.1L16.6235 24.1V23.1L13.3647 23.1L13.3648 24.1ZM13.3447 24.0996L13.3448 24.0996L13.3847 23.1004L13.3846 23.1004L13.3447 24.0996ZM12.8647 23.6005L12.8647 23.601L13.8647 23.5991L13.8647 23.5986L12.8647 23.6005ZM12.0974 19.6833L12.8738 23.6946L13.8555 23.5045L13.0792 19.4933L12.0974 19.6833ZM12.7199 16.0985L12.0965 19.4981L13.0801 19.6785L13.7035 16.2788L12.7199 16.0985ZM12.7128 16.2216L12.7129 16.222L13.7106 16.1553L13.7106 16.1549L12.7128 16.2216ZM12.7148 16.2434L12.7148 16.2435L13.7087 16.1331L13.7087 16.133L12.7148 16.2434ZM17.6844 28.1343L21.3902 26.3815L20.9627 25.4775L17.2568 27.2304L17.6844 28.1343ZM16.971 27.6643L16.971 27.6645L17.9703 27.7002L17.9703 27.7L16.971 27.6643ZM20.9626 25.4773L17.2568 27.2302L17.6844 28.1342L21.3902 26.3813L20.9626 25.4773ZM16.9695 24.4378L20.9575 26.3789L21.3952 25.4798L17.4072 23.5387L16.9695 24.4378ZM16.8859 23.5901L16.8858 23.5902L17.4909 24.3863L17.4909 24.3863L16.8859 23.5901ZM21.3952 25.4797L17.4072 23.5386L16.9696 24.4378L20.9576 26.3789L21.3952 25.4797ZM20.1271 21.3654L20.68 25.9887L21.6729 25.8699L21.12 21.2467L20.1271 21.3654ZM20.1385 21.4273L20.1385 21.4273L21.1086 21.1848L21.1086 21.1847L20.1385 21.4273ZM20.3166 20.9113L20.3166 20.9113L20.9305 21.7007L20.9305 21.7006L20.3166 20.9113ZM20.6229 20.8059L20.6166 20.806L20.6305 21.8059L20.6368 21.8058L20.6229 20.8059ZM21.673 25.8707L21.1264 21.2472L20.1333 21.3646L20.68 25.9881L21.673 25.8707ZM21.6005 26.1944L21.6005 26.1944L20.7525 25.6644L20.7525 25.6644L21.6005 26.1944ZM21.5861 26.2162L21.5861 26.2162L20.7669 25.6427L20.7668 25.6427L21.5861 26.2162ZM9.30435 21.6557L9.30452 21.6557L9.2712 20.6563L9.27103 20.6563L9.30435 21.6557ZM6.1434 16.1226L8.84282 21.3842L9.73256 20.9277L7.03314 15.6662L6.1434 16.1226ZM6.94474 15.5438L6.94438 15.5434L6.23216 16.2454L6.23252 16.2457L6.94474 15.5438ZM9.73273 20.9277L7.0335 15.6665L6.14376 16.123L8.84299 21.3842L9.73273 20.9277ZM9.1295 19.0915L12.4469 20.0679L12.7293 19.1086L9.41185 18.1322L9.1295 19.0915ZM8.77095 18.6285L8.77095 18.6285L9.7704 18.5952L9.77039 18.5951L8.77095 18.6285ZM9.0919 18.1449L9.09174 18.1449L9.4496 19.0787L9.44976 19.0786L9.0919 18.1449ZM12.7292 19.1084L9.412 18.1321L9.12965 19.0914L12.4468 20.0677L12.7292 19.1084ZM13.0398 19.374L13.0397 19.3738L12.1362 19.8024L12.1363 19.8026L13.0398 19.374ZM13.0256 19.3439L12.0652 17.3304L11.1626 17.7609L12.1231 19.7744L13.0256 19.3439ZM11.1711 17.7545L12.1221 19.7723L13.0267 19.346L12.0757 17.3282L11.1711 17.7545ZM11.821 18.0008L11.8305 17.9964L11.4163 17.0862L11.4068 17.0905L11.821 18.0008Z" fill="white"/>
<path d="M48 9C47.4902 9 47.0769 9.41328 47.0769 9.92308V14.0769H42.9231C42.4133 14.0769 42 14.4902 42 15C42 15.5098 42.4133 15.9231 42.9231 15.9231H47.0769V20.0769C47.0769 20.5867 47.4902 21 48 21C48.5098 21 48.9231 20.5867 48.9231 20.0769V15.9231H53.0769C53.5867 15.9231 54 15.5098 54 15C54 14.4902 53.5867 14.0769 53.0769 14.0769H48.9231V9.92308C48.9231 9.41328 48.5098 9 48 9Z" fill="white"/>
<defs>
<clipPath id="clip0">
<rect x="66" width="30" height="30" fill="white"/>
</clipPath>
<clipPath id="clip1">
<rect width="30" height="30" fill="white"/>
</clipPath>
</defs>
</svg>
