<svg width="20" height="30" fill="none" xmlns="http://www.w3.org/2000/svg"><path fill-rule="evenodd" clip-rule="evenodd" d="M9.92535 0L2.3161 12.6278l-.01311.0158-.40039.6644-.66584 1.1063-.486411.8096-.000101.0025-.045817.0761H.704399l.005932.0074.602529.3559-.440525 1.334-.568561.2482-.007185-.0043c-.193575.7846-.29313021 1.5895-.29656987 2.3976L.872335 16.9998l.001123-.0005L0 19.6461c0 1.1007.179697 2.1771.511403 3.1946.1446.449.319306.8889.523407 1.3168.67232 1.4095 1.6471 2.6535 2.85496 3.6433l.03379.0167.05539.0447c-.03155-.0152-.06325-.0307-.09513-.0466l.0267.0208c.01913.0151.03781.0304.05666.0458l.00011.0001c.02932.024.05905.0484.09152.0727l.01335.0119.1646.126c.02804.0218.05739.0415.08682.0613h.00004c.03283.0221.06575.0442.09703.0692.03485.0279.07381.0548.11084.0803.02599.0179.05103.0352.07304.0517.05339.0401.11271.0801.16461.1127l.03263.0193c.0547.041.11218.0782.17202.1112l.01928.0134c.05931.04.1127.0741.17795.1127l.02968.0176c.05538.0329.11093.0659.16755.0936.03506.0171.06971.0363.10417.0554h.00005l.00004.0001h.00009l.00009.0001.00036.0002c.03091.0171.06167.0341.09243.0495l.19723.0979.20317.0993c.03215.0157.06569.0301.09911.0444H6.065c.03593.0153.07172.0306.10553.0476.13198.0593.27137.1201.41522.1705.04371.0153.08659.0308.12928.0462h.00011c.09777.0352.1945.0701.2977.1021.03232.0126.06682.0224.10218.0325H7.11512c.023.0066.04637.0133.06974.0209l.19723.0593c.04272.0108.0864.0226.13077.0346h.00012c.06496.0176.13138.0355.19833.0514.04509.0086.09064.0145.13643.0178l.07266.0133c.02419.0055.04936.0107.07432.0158l.00011.0001c.0362.0074.07194.0148.10352.0227.05424.0139.10919.0248.16461.0326.01829.0028.03616.0072.05417.0117.03016.0075.06069.015.09413.015.0542.0126.10919.0216.1646.0267.02561.0075.05198.0119.0786.0134.04183.0007.08352.0052.12457.0133h.02499c.37142.046.74904.0697 1.13172.0697.40756.0005.81406-.0261 1.21686-.0792l.0362-.0038.0027-.0014c.5528-.0754 1.0984-.2008 1.63-.3753.4924-.1659.9699-.3699 1.4285-.6097l.0085-.0043h.0074c.0653-.0326.132-.0667.1973-.1052.0264-.0156.054-.0303.0815-.0448v-.0001c.0404-.0213.0804-.0425.1157-.0664.0296-.02.0593-.0381.089-.0563.0296-.0182.0593-.0363.0889-.0564l.0002-.0003c.3888-.2384.7614-.5037 1.115-.7945.7548-.619 1.4186-1.3371 1.9744-2.1328.3335-.4775.6281-.9828.8802-1.5115.0841-.1762.1631-.3545.2371-.5345.2777-.6757.4847-1.3771.6181-2.093.1156-.6198.1762-1.2504.18-1.8845v-.0126c.0004-.7022-.0767-1.402-.2296-2.0867-.0214-.0963-.0442-.1924-.0684-.2882l-.0006.0003c-.0002-.0007-.0004-.0015-.0006-.0022l.0026-.0055-.0045-.002-.0014-.0054-.0047.0028-2.119-.922 1.7292-1.022-1.4879-2.4692-.1122-.1897-.0076-.0091L9.92535 0zM1.31342 15.6661l1.11348.6578-1.40661.6113-.146832.0641.439962-1.3332zm0 0l1.00268-3.0383-1.00324 3.038.00056.0003zm7.30396-3.9608v-.0004l1.20732-.5489-1.20732.5493z" fill="#fff"/></svg>