<svg width="15" height="17" viewBox="0 0 15 17" fill="none" xmlns="http://www.w3.org/2000/svg">
<path opacity="0.1" d="M13.827 3.42064C11.7023 2.66556 9.70827 1.58393 7.91671 0.214702C7.72878 0.0752749 7.50099 0 7.26698 0C7.03298 0 6.80518 0.0752749 6.61725 0.214702C4.82749 1.58363 2.83531 2.66526 0.712436 3.42064C0.503322 3.4957 0.322573 3.63366 0.19501 3.81556C0.067447 3.99747 -0.000672797 4.21441 5.00952e-06 4.43658C5.00952e-06 8.18048 0.726976 11.0048 2.19546 13.0694C3.39677 14.7487 4.9216 15.7192 6.27921 16.5752L6.68086 16.8296C6.85443 16.9409 7.05627 17 7.26244 17C7.46861 17 7.67045 16.9409 7.84402 16.8296L8.24567 16.5734C9.59602 15.7173 11.1281 14.7559 12.3294 13.0675C13.8124 11.0048 14.5394 8.18048 14.5394 4.44022C14.5406 4.21748 14.4727 3.99986 14.3451 3.81728C14.2176 3.6347 14.0365 3.49614 13.827 3.42064ZM7.25881 1.08343H7.26789H7.25517H7.25881Z" fill="white"/>
<path opacity="0.5" d="M8.9932 12.2699H6.06599V11.9318C6.14627 11.9256 6.22501 11.9179 6.3022 11.9086C6.3794 11.8994 6.44578 11.8839 6.50136 11.8623C6.60017 11.8253 6.66965 11.7728 6.70979 11.7048C6.74993 11.6338 6.77 11.5412 6.77 11.4269V8.73132C6.77 8.62325 6.7453 8.52907 6.69589 8.44879C6.64649 8.36542 6.58473 8.29903 6.51063 8.24963C6.45505 8.21257 6.37013 8.17706 6.25588 8.1431C6.14472 8.10913 6.04283 8.08752 5.9502 8.07825V7.74014L8.21971 7.61972L8.28918 7.6892V11.3667C8.28918 11.4748 8.31234 11.5674 8.35866 11.6446C8.40497 11.7187 8.47136 11.7743 8.55782 11.8114C8.61957 11.8392 8.68751 11.8639 8.76161 11.8855C8.83572 11.9071 8.91291 11.9225 8.9932 11.9318V12.2699ZM8.31697 5.95232C8.31697 6.18699 8.22588 6.3877 8.04371 6.55444C7.86461 6.71809 7.65156 6.79992 7.40454 6.79992C7.15443 6.79992 6.93828 6.71809 6.7561 6.55444C6.57701 6.3877 6.48747 6.18699 6.48747 5.95232C6.48747 5.71765 6.57701 5.51695 6.7561 5.35021C6.93828 5.18347 7.15443 5.1001 7.40454 5.1001C7.65465 5.1001 7.86925 5.18347 8.04834 5.35021C8.22743 5.51695 8.31697 5.71765 8.31697 5.95232Z" fill="white"/>
</svg>
