<svg width="60" height="60" viewBox="0 0 60 60" fill="none" xmlns="http://www.w3.org/2000/svg">
<circle cx="30" cy="30" r="30" fill="#2B71FF" fill-opacity="0.1"/>
<path d="M21 17V42H39.9024V23.0976H34.4146C34.0954 23.0975 33.8049 22.8071 33.8049 22.4878V17H21ZM35.0244 17.6098V21.878H39.2927L35.0244 17.6098ZM24.0488 26.7561H34.4146C34.7514 26.7561 35.0244 27.0291 35.0244 27.3659C35.0244 27.7026 34.7514 27.9756 34.4146 27.9756H24.0488C23.712 27.9756 23.439 27.7026 23.439 27.3659C23.439 27.0291 23.712 26.7561 24.0488 26.7561ZM24.0488 31.6341H36.8537C37.1904 31.6341 37.4634 31.9071 37.4634 32.2439C37.4634 32.5807 37.1904 32.8537 36.8537 32.8537H24.0488C23.712 32.8537 23.439 32.5807 23.439 32.2439C23.439 31.9071 23.712 31.6341 24.0488 31.6341ZM24.0488 36.5122H36.8537C37.1904 36.5122 37.4634 36.7852 37.4634 37.122C37.4634 37.4587 37.1904 37.7317 36.8537 37.7317H24.0488C23.712 37.7317 23.439 37.4587 23.439 37.122C23.439 36.7852 23.712 36.5122 24.0488 36.5122Z" fill="#2B71FF"/>
</svg>
