<svg width="22" height="22" viewBox="0 0 22 22" fill="none" xmlns="http://www.w3.org/2000/svg">
<path d="M11 21C16.5256 21 21 16.4987 21 11C21 5.50135 16.5256 1 11 1C5.47439 1 1 5.47439 1 11C1 16.5256 5.47439 21 11 21ZM11 2.07817C15.9326 2.07817 19.9218 6.09434 19.9218 11C19.9218 15.9057 15.9326 19.9218 11 19.9218C6.06739 19.9218 2.07817 15.9326 2.07817 11C2.07817 6.06739 6.06739 2.07817 11 2.07817Z" fill="#2B71FF" stroke="#2B71FF" stroke-width="0.7"/>
<path d="M10.8922 17.1482C11.309 17.1482 11.6469 16.8103 11.6469 16.3935C11.6469 15.9767 11.309 15.6388 10.8922 15.6388C10.4753 15.6388 10.1375 15.9767 10.1375 16.3935C10.1375 16.8103 10.4753 17.1482 10.8922 17.1482Z" fill="#2B71FF" stroke="#2B71FF" stroke-width="0.7"/>
<path d="M8.43935 8.70886C8.73585 8.70886 8.97843 8.46627 8.97843 8.16978C8.97843 7.0377 9.89488 6.12126 11 6.12126C12.1051 6.12126 13.0216 7.0377 13.0216 8.16978C13.0216 9.6253 12.2399 10.1105 11.5121 10.5687C10.9461 10.9191 10.2992 11.3504 10.2992 12.159C10.2992 12.1859 10.2992 12.1859 10.2992 12.2129C10.2992 12.2399 10.2992 12.2399 10.2992 12.2668V13.1563C10.2992 13.4528 10.5418 13.6954 10.8383 13.6954C11.1348 13.6954 11.3774 13.4528 11.3774 13.1563V12.2938C11.3774 12.2668 11.3774 12.2668 11.3774 12.2399C11.3774 12.2129 11.3774 12.2129 11.3774 12.1859C11.3774 11.9703 11.593 11.8086 12.1051 11.4851C12.9137 10.973 14.1267 10.2183 14.1267 8.16978C14.1267 6.44471 12.7251 5.04309 11.027 5.04309C9.32884 5.04309 7.92722 6.44471 7.92722 8.16978C7.90027 8.49323 8.14285 8.70886 8.43935 8.70886Z" fill="#2B71FF" stroke="#2B71FF" stroke-width="0.7"/>
</svg>
