<svg width="20" height="18" viewBox="0 0 20 18" fill="none" xmlns="http://www.w3.org/2000/svg">
<path d="M14.9091 1C15.0218 1 15.1283 1.05006 15.1903 1.10866L18.8721 4.58593C18.9516 4.66113 18.9989 4.77731 19 4.88636C19.0011 4.99832 18.9538 5.10317 18.8721 5.18039L15.1903 8.65766C15.0347 8.80491 14.7623 8.80047 14.615 8.64487C14.4678 8.48925 14.4722 8.21046 14.6278 8.0632L17.5618 5.29545H1.40911C1.19296 5.29545 1.00002 5.0792 1.00002 4.88636C1.00002 4.69351 1.19296 4.47727 1.40911 4.47727H17.5618L14.6278 1.70312C14.501 1.58789 14.4616 1.38635 14.532 1.23011C14.5969 1.08587 14.7493 1 14.9091 1ZM5.1037 9.18819C5.21046 9.19114 5.31771 9.23184 5.39134 9.30964C5.53861 9.46526 5.5278 9.74407 5.37217 9.89132L2.43822 12.6591H18.5909C18.807 12.6591 19 12.8753 19 13.0682C19 13.261 18.807 13.4772 18.5909 13.4772H2.43822L5.37217 16.2514C5.49899 16.3666 5.53842 16.5681 5.46805 16.7244C5.40308 16.8686 5.25068 16.9545 5.09092 16.9545C4.97815 16.9545 4.87172 16.9045 4.80967 16.8458L1.12786 13.3686C1.04835 13.2934 1.00107 13.1772 1.00002 13.0682C0.998932 12.9562 1.04622 12.8513 1.12786 12.7741L4.80967 9.29686C4.88748 9.22323 4.99694 9.18525 5.1037 9.18819Z" fill="#2B71FF" stroke="#2B71FF"/>
</svg>
