<svg width="60" height="60" viewBox="0 0 60 60" fill="none" xmlns="http://www.w3.org/2000/svg">
<circle cx="30" cy="30" r="30" fill="#2B71FF" fill-opacity="0.1"/>
<path d="M41.0754 34.1969C42.729 32.8753 41.785 31.4235 41.1535 30.7269C40.9321 30.4795 40.8605 30.0823 41.0103 29.7894C43.2628 25.167 35.1184 26.0264 32.8137 26.3519C32.4882 26.3975 32.4101 26.2542 32.6379 26.0134C38.0871 20.1084 32.5272 14.783 31.2773 17.9405C29.3697 22.7647 25.0078 26.7165 23.5755 27.9209C23.3216 28.1357 23.1132 28.5654 23.1132 28.8975V40.4208C23.1132 40.7528 23.3802 41.0198 23.7122 41.0393C25.5416 41.1435 26.9348 41.7164 27.651 42.0679C27.9439 42.2177 28.4257 42.4455 28.7512 42.5237C30.8476 43.038 34.0897 43.038 34.0897 43.038C41.6418 43.038 41.134 40.4208 40.5676 39.2945C40.4178 39.0016 40.4764 38.6435 40.7238 38.4221C42.2342 37.094 41.5181 35.6813 40.9842 34.9846C40.7824 34.7177 40.8149 34.3987 41.0754 34.1969ZM20.3073 27.6149H17.599C17.2669 27.6149 17 27.8818 17 28.2139V41.8336C17 42.1656 17.2669 42.4325 17.599 42.4325H20.3073C20.6393 42.4325 20.9062 42.1656 20.9062 41.8336V28.2204C20.9062 27.8883 20.6393 27.6149 20.3073 27.6149Z" fill="#2B71FF"/>
</svg>
