<svg width="60" height="60" viewBox="0 0 60 60" fill="none" xmlns="http://www.w3.org/2000/svg">
<circle cx="30" cy="30" r="30" fill="#2B71FF" fill-opacity="0.1"/>
<path d="M29.9918 38.168C29.4638 38.168 29.0078 37.992 28.6238 37.64C28.2558 37.272 28.0718 36.832 28.0718 36.32C28.0718 35.792 28.2558 35.352 28.6238 35C29.0078 34.632 29.4638 34.448 29.9918 34.448C30.5358 34.448 30.9918 34.632 31.3598 35C31.7438 35.352 31.9358 35.792 31.9358 36.32C31.9358 36.832 31.7438 37.272 31.3598 37.64C30.9918 37.992 30.5358 38.168 29.9918 38.168ZM28.8398 32.84L28.4078 20.84H31.6478L31.1918 32.84H28.8398Z" fill="#2B71FF"/>
</svg>
