<svg width="78" height="78" viewBox="0 0 78 78" fill="none" xmlns="http://www.w3.org/2000/svg">
<path d="M34.6699 7.5C36.5944 4.16667 41.4056 4.16667 43.3301 7.5L68.4449 51C70.3694 54.3333 67.9637 58.5 64.1147 58.5H13.8853C10.0363 58.5 7.63064 54.3333 9.55514 51L34.6699 7.5Z" fill="#2B71FF" fill-opacity="0.1"/>
<path d="M38.9918 46.168C38.4638 46.168 38.0078 45.992 37.6238 45.64C37.2558 45.272 37.0718 44.832 37.0718 44.32C37.0718 43.792 37.2558 43.352 37.6238 43C38.0078 42.632 38.4638 42.448 38.9918 42.448C39.5358 42.448 39.9918 42.632 40.3598 43C40.7438 43.352 40.9358 43.792 40.9358 44.32C40.9358 44.832 40.7438 45.272 40.3598 45.64C39.9918 45.992 39.5358 46.168 38.9918 46.168ZM37.8398 40.84L37.4078 28.84H40.6478L40.1918 40.84H37.8398Z" fill="#2B71FF"/>
</svg>
