<svg width="15" height="18" viewBox="0 0 15 18" fill="none" xmlns="http://www.w3.org/2000/svg">
<path d="M14.265 3.529C12.073 2.74999 10.0158 1.6341 8.16749 0.221503C7.97361 0.0776594 7.7386 0 7.49718 0C7.25577 0 7.02075 0.0776594 6.82687 0.221503C4.98042 1.6338 2.92513 2.74969 0.735004 3.529C0.519266 3.60644 0.332791 3.74876 0.201187 3.93643C0.0695836 4.1241 -0.000694109 4.34791 5.16821e-06 4.57712C5.16821e-06 8.43962 0.750004 11.3534 2.265 13.4834C3.50438 15.2159 5.0775 16.2171 6.47812 17.1002L6.8925 17.3627C7.07157 17.4775 7.2798 17.5385 7.4925 17.5385C7.70519 17.5385 7.91343 17.4775 8.09249 17.3627L8.50687 17.0984C9.89999 16.2152 11.4806 15.2234 12.72 13.4815C14.25 11.3534 15 8.43962 15 4.58087C15.0012 4.35108 14.9312 4.12657 14.7995 3.9382C14.6679 3.74984 14.4812 3.60688 14.265 3.529ZM7.48875 1.11775H7.49812H7.48499H7.48875Z" fill="#FFC30D"/>
<path opacity="0.9" d="M7.99986 10.756L8.19786 5.663H6.78986L6.99886 10.756H7.99986ZM7.49386 13.11C7.91186 13.11 8.26386 12.758 8.26386 12.351C8.26386 11.933 7.91186 11.581 7.49386 11.581C7.07586 11.581 6.73486 11.933 6.73486 12.351C6.73486 12.758 7.07586 13.11 7.49386 13.11Z" fill="white"/>
</svg>
