<svg width="60" height="60" viewBox="0 0 60 60" fill="none" xmlns="http://www.w3.org/2000/svg">
<circle cx="30" cy="30" r="30" fill="#2B71FF" fill-opacity="0.1"/>
<path d="M28 31C28.869 32.1617 30.1996 32.8887 31.6466 32.9923C33.0937 33.0959 34.5144 32.566 35.54 31.54L38.54 28.54C40.4349 26.5781 40.4078 23.4595 38.4791 21.5309C36.5504 19.6022 33.4319 19.5751 31.47 21.47L29.75 23.18" stroke="#2B71FF" stroke-width="1.7" stroke-linecap="round" stroke-linejoin="round"/>
<path d="M32.0002 29.0002C31.1312 27.8385 29.8006 27.1115 28.3536 27.0079C26.9065 26.9043 25.4858 27.4342 24.4602 28.4602L21.4602 31.4602C19.5653 33.4221 19.5924 36.5407 21.5211 38.4693C23.4498 40.398 26.5683 40.4251 28.5302 38.5302L30.2402 36.8202" stroke="#2B71FF" stroke-width="1.7" stroke-linecap="round" stroke-linejoin="round"/>
</svg>
