<svg width="30" height="30" viewBox="0 0 30 30" fill="none" xmlns="http://www.w3.org/2000/svg">
<path d="M25.6848 4.30728C25.4039 4.02638 24.9484 4.02638 24.6675 4.30728L22.1245 6.85032C21.8436 7.13122 21.8436 7.58663 22.1245 7.86754C22.4054 8.14844 22.8608 8.14844 23.1417 7.86754L25.6848 5.3245C25.9657 5.0436 25.9657 4.58819 25.6848 4.30728ZM19.6053 0.214568C19.4751 0.0843928 19.2874 3.59644e-06 19.0887 0C18.6915 -3.59638e-06 18.3656 0.325947 18.3656 0.723167L18.3735 4.32315C18.3735 4.72041 18.6915 5.03845 19.0887 5.03842C19.486 5.03842 19.8119 4.7125 19.8119 4.31525L19.8119 0.723167C19.8119 0.52453 19.7355 0.344748 19.6053 0.214568ZM29.7854 10.3947C29.6553 10.2646 29.4755 10.1881 29.2768 10.1881H25.6848C25.2875 10.1881 24.9616 10.514 24.9616 10.9112C24.9616 11.3085 25.2796 11.6265 25.6768 11.6265L29.2768 11.6344C29.674 11.6344 30 11.3085 30 10.9112C30 10.7126 29.9156 10.5248 29.7854 10.3947V10.3947ZM16.2755 4.05298L13.7324 6.59602L23.396 16.2596L25.9391 13.7166L16.2755 4.05298ZM13.4305 7.31126L12.9695 11.4278L0 24.3973L5.59471 29.9921L18.5642 17.0225L22.6808 16.5616L13.4305 7.31126ZM15.5126 14.4795C15.7935 14.7604 15.7935 15.2158 15.5126 15.4967L12.9695 18.0397C12.6886 18.3206 12.2332 18.3207 11.9523 18.0398C11.6714 17.7589 11.6714 17.3034 11.9523 17.0225L14.4954 14.4795C14.7763 14.1986 15.2317 14.1986 15.5126 14.4795Z" fill="#2B71FF"/>
</svg>
