<svg width="17" height="25" viewBox="0 0 17 25" fill="none" xmlns="http://www.w3.org/2000/svg">
<path d="M10.2576 1.5625L8.49976 10.8203L14.8669 10.8594L6.19507 23.3984L7.95288 13.2031L1.58569 13.1641L10.2576 1.5625ZM10.2576 0C10.2185 0 10.1794 0 10.1404 0C9.86695 0.0390625 9.67163 0.117187 9.47632 0.273437C9.35913 0.351562 9.24195 0.46875 9.16382 0.546875C9.12476 0.585938 9.12476 0.625 9.0857 0.664062L0.296631 12.2656C-0.0549314 12.7344 -0.0939943 13.3594 0.179443 13.9062C0.452881 14.4141 0.999756 14.7656 1.58569 14.7656L6.07788 14.8047L4.67163 23.1641C4.55444 23.8672 4.90601 24.6094 5.60913 24.8828C5.80444 24.9609 6.03882 25 6.23413 25C6.74194 25 7.13257 24.7656 7.44507 24.3359L16.1951 11.7969C16.5466 11.3281 16.5857 10.7031 16.3123 10.1563C16.0388 9.64844 15.4919 9.29688 14.906 9.29688H10.4138L11.8201 1.95313C11.8591 1.83594 11.8591 1.71875 11.8591 1.60156C11.8591 0.742188 11.1951 0.0781252 10.3357 0.0390627C10.2966 1.4843e-07 10.2576 0 10.2576 0Z" fill="#2B71FF"/>
</svg>
