  <svg width="60" height="60" viewBox="0 0 60 60" fill="none" xmlns="http://www.w3.org/2000/svg">
    <circle cx="30" cy="30" r="30" fill="#2B71FF" fillOpacity="0.1" />
    <path
      d="M38.1538 18H27.1081V32.8138H41.9322V21.8542C41.9382 19.7733 40.2361 18 38.1538 18ZM23.716 18H21.863C19.7806 18 18 19.6949 18 21.8603V23.712H23.716V18ZM18 27.1802H23.716V32.8922H18V27.1802ZM36.2223 41.994H38.0753C40.1577 41.994 41.9382 40.2991 41.9382 38.1337V36.288H36.2223V41.994ZM27.1081 36.288H32.8241V42H27.1081V36.288ZM18 36.288V38.1397C18 40.2207 19.6961 42 21.863 42H23.716V36.288H18Z"
      fill="#2B71FF"
    />
  </svg>