<svg width="30" height="30" fill="none" xmlns="http://www.w3.org/2000/svg"><path fill-rule="evenodd" clip-rule="evenodd" d="M0 5.45882l1 4.79998-.635294.4706.941174.7177-.717645.5647.941175.8588-.588233.4235 1.352943 1.5883 6.15285-1.8h-.00004l-6.15289 1.8-2.047022 6.3765H.246986h.000038L2.1529 27.7648l6.67047-1.8353.00005.0001.00001-.0001h.00006l-.00005-.0001.01648-.1394-.01631.1393h-.00003l3.70592 1.753v.0001l-3.70592-1.753 1.29412 1.0588 2.6235 1.8236h4.5059l2.6353-1.8236 1.2941-1.0587v.0001l.0001-.0001 6.6704 1.8353 1.9177-6.5059-2.0706-6.3765-6.1528-1.7999v-.0001l6.1529 1.8 1.3647-1.5883-.5882-.4235.9412-.8588-.7295-.5647.9412-.7177-.6235-.4706 1-4.79998L28.506 1l-.2251.16703L28.5058 1l-9.5412 3.56471v.00003h-7.9292v-.00003L1.48246 1l.00554.00419L1.48235 1 0 5.45882zM13.2117 16.1882l-6.62348-.2941-.00006.0001.00004.0001h.00017l-.00005-.0001.00011.0001 6.62327.2941-.6235 3.3997-.0001.0002h.0001l.7764 4.0118-.5646.3882-.2941 2.5999h.0001l.2941-2.5999.5647-.3882h3.2588l.7882-4.0118 3.3293-.9764.0001-.0001 2.6705-2.7175.0001-.0001-.0002-.0002-6.6116.2941v.0002l-.0001.0001H16.8v-.0001.0001l6.6117-.2941-2.6706 2.7176-2.3529-1.0706-.002.0042 2.3432 1.0662-3.3157.9724-.002.0041v.0001L16.6235 23.6v-.001.001H13.3647v-.0005l-.7764-4.0112.6234-3.3996v-.0005zm7.9648 9.7413l-3.7059 1.7529v-.0002l3.7058-1.7529-3.9881-1.941.0001-.0001 3.988 1.9411-.5529-4.6233h.0001l.0063-.0001.5466 4.6235v.0001zM9.28786 21.156h-.00017l-2.69942-5.2616.00036.0004 2.69923 5.2612zm3.30024-1.5677l-3.31743-.9764v-.0001l.00016-.0001 3.31717.9764.0001.0002zm-.9742-2.0426l.9605 2.0135-.951-2.0179-.0095.0044z" fill="#fff"/><path d="M1 10.2588l.29761.4018c.15676-.1161.23167-.3128.19188-.5038L1 10.2588zM0 5.45882l-.474467-.15773c-.027836.08373-.033019.17333-.015023.25971L0 5.45882zm.364706 5.27058l-.2976138-.4018c-.1263213.0936-.2012812.2411-.2023742.3983-.001093.1572.0718087.3058.1968167.4011l.3031713-.3976zm.941174.7177l.3092.3929c.12153-.0956.19197-.2421.19079-.3967-.00118-.1547-.07384-.3001-.19682-.3938l-.30317.3976zm-.717645.5647l-.309195-.393c-.115454.0909-.1851117.2279-.1904718.3747-.00536.1468.0541198.2886.1626418.3876l.337025-.3693zm.941175.8588l.29215.4058c.12226-.0881.19831-.2265.20702-.3769.0087-.1504-.05086-.2967-.16214-.3983l-.33703.3694zm-.588233.4235l-.292153-.4057c-.113361.0816-.18741.2069-.204216.3456-.016805.1386.025164.278.115747.3844l.380622-.3243zm1.352943 1.5883l-.38062.3242c.12781.15.33184.211.52101.1556l-.14039-.4798zm6.15285-1.8l.41603.2773c.11659-.1749.11136-.404-.0131-.5734-.12447-.1694-.34158-.2428-.54331-.1838l.14038.4799zm-.00004 0l.14039.4799c.11283-.033.21042-.1047.27564-.2025l-.41603-.2774zm-6.15289 1.8l-.14038-.4799c-.15923.0466-.28498.1691-.33569.3271l.47607.1528zM.247018 21.2589l.269353.4212c.098042-.0627.171147-.1576.206717-.2684l-.47607-.1528zm-.000032 0l-.2693536-.4212c-.1871184.1196-.2728834.3483-.2105554.5615.062329.2132.2578078.3597.479909.3597v-.5zm.000038 0l.479835-.1406c-.062413-.213-.257831-.3594-.479835-.3594v.5zM2.1529 27.7648l-.47983.1405c.07673.262.34932.414.61247.3415l-.13264-.482zm6.67047-1.8353l.41511-.2787c-.11986-.1785-.34043-.2604-.54775-.2034l.13264.4821zm.00005.0001l-.41511.2787c.11671.1738.32938.2565.53287.2072.20349-.0493.35471-.2202.37889-.4282l-.49665-.0577zm.00001-.0001l-.12973-.4829c-.19786.0532-.34327.2216-.36693.4251l.49666.0578zm.00006 0l.12973.4828c.15483-.0416.28033-.1549.33745-.3047.05713-.1498.03895-.3179-.04887-.452l-.41831.2739zm-.00005-.0001l-.49654-.0587c-.01379.1166.0139.2343.07823.3326l.41831-.2739zm.01648-.1394l.49661.0581c.03209-.2742-.16405-.5225-.43819-.5547-.27414-.0323-.52255.1637-.55496.4379l.49654.0587zm-.01631.1393l.33739.369c.08872-.0811.14525-.1915.15922-.3109l-.49661-.0581zm-.00003 0l-.33739-.369c-.12295.1124-.18184.2787-.15704.4435.0248.1647.13003.3063.28063.3775l.2138-.452zm3.70592 1.753l.4999-.0061c-.0023-.1911-.1134-.3642-.2861-.4459l-.2138.452zm0 .0001l-.2138.4519c.1558.0738.3387.062.4838-.0312.1451-.0931.232-.2544.2299-.4268l-.4999.0061zm-3.70592-1.753l.21379-.452c-.22836-.108-.50142-.0287-.63641.1848-.135.2135-.08952.4942.106.6542l.31662-.387zm1.29412 1.0588l-.31662.387c.0101.0083.02053.0161.03125.0236l.28537-.4106zm2.6235 1.8236l-.2853.4105c.0837.0583.1833.0895.2853.0895v-.5zm4.5059 0v.5c.1017 0 .2009-.031.2845-.0889l-.2845-.4111zm2.6353-1.8236l.2845.4112c.011-.0076.0217-.0157.0321-.0242l-.3166-.387zm1.2941-1.0587l.4968-.0565c-.023-.2028-.1671-.3712-.3638-.4255l-.133.482zm0 .0001l-.4968.0564c.0237.2086.1752.3802.3792.4295.2041.0494.4172-.0339.5336-.2086l-.416-.2773zm.0001-.0001l.1326-.4821c-.2079-.0572-.4291.0253-.5487.2047l.4161.2774zm6.6704 1.8353l-.1326.482c.2628.0724.5352-.0792.6122-.3407l-.4796-.1413zm1.9177-6.5059v-.5c-.2217 0-.4169.146-.4796.3586l.4796.1414zm0 0v.5c.2179 0 .4107-.1411.4766-.3487.0659-.2077-.0102-.4341-.1882-.5598l-.2884.4085zm0 0l-.4756.1544c.0334.1027.099.1918.1872.2541l.2884-.4085zm-2.0706-6.3765l.4756-.1544c-.0511-.1572-.1765-.279-.3352-.3255l-.1404.4799zm-6.1528-1.7999l-.415.2789c.0653.097.1624.1681.2747.201l.1403-.4799zm0-.0001l.1404-.4799c-.2021-.0591-.4196.0146-.5439.1845-.1243.1699-.129.3995-.0115.5742l.415-.2788zm6.1529 1.8l-.1404.4798c.1884.0552.3917-.0051.5196-.154l-.3792-.3258zm1.3647-1.5883l.3792.3259c.0913-.1063.1339-.2459.1173-.385-.0165-.1391-.0907-.2648-.2043-.3466l-.2922.4057zm-.5882-.4235l-.337-.3694c-.1113.1016-.1709.2479-.1622.3983.0087.1504.0848.2888.207.3769l.2922-.4058zm.9412-.8588l.337.3693c.109-.0995.1685-.2421.1625-.3895-.0059-.1475-.0767-.2848-.1935-.3752l-.306.3954zm-.7295-.5647l-.3031-.3976c-.1235.0941-.1963.2404-.1969.3957-.0005.1554.0711.3021.194.3972l.306-.3953zm.9412-.7177l.3032.3976c.1244-.0948.1972-.2424.1968-.3988-.0004-.1564-.0739-.3037-.1988-.3979l-.3012.3991zm-.6235-.4706l-.4895-.102c-.0395.1894.0339.3846.1883.5011l.3012-.3991zm1-4.79998l.4895.10198c.0181-.08677.0127-.17679-.0154-.26084l-.4741.15886zM28.506 1l.4741-.158864c-.0509-.151843-.1715-.270126-.3242-.318137-.1528-.04801-.3193-.019938-.4479.075503L28.506 1zm-.2251.16703l-.2981-.401404c-.2217.164631-.2679.477774-.1033.699454.1646.22169.4777.268.6994.10344l-.298-.40149zM28.5058 1l.2981.4014c.2-.14851.2602-.421526.1411-.640317-.119-.218791-.3809-.31663-.6142-.229461L28.5058 1zm-9.5412 3.56471l-.175-.46838c-.1306.04883-.235.15004-.2878.27919l.4628.18919zm0 .00003v.5c.2031 0 .386-.12283.4629-.31082l-.4629-.18918zm-7.9292 0l-.4628.18918c.0768.18799.2597.31082.4628.31082v-.5zm0-.00003l.4628-.18919c-.0528-.12921-.1572-.23046-.288-.27926l-.1748.46845zM1.48246 1l.1748-.468448c-.23257-.086783-.49359.010196-.61307.227777-.119485.217582-.061248.489881.13678.639551L1.48246 1zm.00554.00419l-.29799.4015c.22106.16407.53315.11858.69819-.10176.16503-.22034.1209-.532628-.09871-.69862l-.30149.39888zM1.48235 1l.298-.401498C1.65159.502936 1.4848.474923 1.33189.523178c-.15292.048255-.27342.166922-.324.319084L1.48235 1zM13.2117 16.1882l.497-.0552c-.0273-.2448-.2287-.4334-.4748-.4443l-.0222.4995zm-6.62348-.2941l.02219-.4995c-.17594-.0078-.34302.0775-.43984.2246l.41765.2749zm-.00006.0001l-.41765-.2749c-.0992.1507-.1095.3432-.02695.5036l.4446-.2287zm.00004.0001l-.44461.2287c.08172.1588.24196.262.42038.2707l.02423-.4994zm.00017 0l-.02423.4994c.17832.0086.34772-.0784.44446-.2285.09674-.15.10614-.3403.02466-.4991l-.44489.2282zm-.00005-.0001l.3558-.3513c-.1734-.1757-.44901-.1985-.64895-.0538s-.26438.4137-.15174.6333l.44489-.2282zm.00011.0001l-.35581.3513c.08855.0896.20771.1426.33363.1482l.02218-.4995zm6.62327.2941l.4918.0902c.026-.1422-.0107-.2887-.1007-.4017-.09-.1131-.2246-.1816-.369-.188l-.0221.4995zm-.6235 3.3997l.4903.0981.0015-.0079-.4918-.0902zm-.0001.0002l-.4902-.098c-.0501.2502.0963.498.3397.5748l.1505-.4768zm.0001 0l.4909-.095c-.0349-.18-.1655-.3265-.3404-.3818l-.1505.4768zm.7764 4.0118l.2833.412c.1639-.1127.2454-.3118.2076-.507l-.4909.095zm-.5646.3882l-.2832-.4121c-.1194.0821-.1973.2119-.2136.3559l.4968.0562zm-.2941 2.5999l-.4968-.0562c-.0023.0206-.0034.0414-.0031.0623l.4999-.0061zm0 0l-.4999.0061c.0024.1988.1223.3773.3055.4546.1831.0773.3947.0388.5388-.0982l-.3444-.3625zm.0001 0l.3443.3625c.0853-.081.1393-.1894.1525-.3063l-.4968-.0562zm.2941-2.5999l-.2833-.412c-.1194.0821-.1973.2119-.2136.3558l.4969.0562zm.5647-.3882v-.5c-.1012 0-.1999.0307-.2833.088l.2833.412zm3.2588 0v.5c.224 0 .4206-.149.4813-.3646.0607-.2156-.0294-.4452-.2206-.562l-.2607.4266zm0 0l-.4907-.0964c-.0403.2053.0514.4139.2299.523l.2608-.4266zm.7882-4.0118l-.1407-.4798c-.179.0525-.3139.2004-.3499.3834l.4906.0964zm3.3293-.9764l.1407.4798c.0224-.0066.0444-.0147.0657-.0244l-.2064-.4554zm.0001-.0001l.2064.4555c.0561-.0255.107-.061.1502-.105l-.3566-.3505zm2.6705-2.7175l.3566.3505c.0345-.0351.0637-.0751.0865-.1188l-.4431-.2317zm.0001-.0001l.4431.2317c.0843-.1613.0743-.3557-.0261-.5075l-.417.2758zm-.0002-.0002l.4171-.2758c-.097-.1466-.2637-.2316-.4393-.2237l.0222.4995zm-6.6116.2941l-.0222-.4995c-.2489.011-.4517.2036-.4755.4516l.4977.0479zm0 .0002l.4734.1606c.0124-.0365.0206-.0744.0243-.1128l-.4977-.0478zm-.0001.0001l-.4735-.1607c-.0528.1557-.0257.3273.0724.4592.0981.1318.2547.207.419.2012l-.0179-.4997zm.0001 0l.0178.4997c.2404-.0086.4407-.1872.4766-.4251l-.4944-.0746zm0-.0001l.4927-.0853c-.0419-.2417-.2528-.4173-.4981-.4147-.2453.0026-.4524.1828-.489.4253l.4944.0747zm0 .0001l-.4927.0852c.0429.248.2635.4255.5149.4143l-.0222-.4995zm6.6117-.2941l.3566.3504c.144-.1466.1837-.3663.1001-.554-.0837-.1877-.2737-.3051-.4789-.2959l.0222.4995zm-5.0235 1.647l.207-.4551c-.2481-.1129-.5409-.0062-.6583.2398l.4513.2153zm-.002.0042l-.4513-.2153c-.0578.1211-.0645.2603-.0185.3864.0459.1261.1406.2284.2627.284l.2071-.4551zm2.3432 1.0662l.1407.4797c.2005-.0587.3433-.236.3581-.4443.0147-.2084-.1016-.404-.2917-.4905l-.2071.4551zm-3.3157.9724l-.1407-.4798c-.1364.04-.2493.1362-.3105.2645l.4512.2153zm-.002.0041l-.4512-.2153c-.0476.0996-.0608.2122-.0377.3201l.4889-.1048zm0 .0001l.4907.0964c.013-.0665.0124-.1349-.0018-.2012l-.4889.1048zM16.6235 23.6l-.4998.0138c.007.2546.2043.4633.4582.4845.2539.0212.4831-.1519.5322-.4019l-.4906-.0964zm0-.001l.4998-.0137c-.0075-.273-.2327-.4895-.5058-.4863-.2731.0033-.493.2251-.494.4982l.5.0018zm0 .001v.5c.2754 0 .499-.2227.5-.4981l-.5-.0019zm-3.2587 0l-.02.4996c.0066.0003.0133.0004.02.0004v-.5zm-.0001 0l-.5.001c.0005.268.2122.4879.48.4986l.02-.4996zm0-.0005l.5-.0009c-.0001-.0316-.0032-.0631-.0092-.0941l-.4908.095zm-.7764-4.0112l-.4918-.0902c-.0112.0612-.0109.124.0009.1852l.4909-.095zm.6234-3.3996l.4918.0901c.0075-.0407.0099-.0822.0071-.1235l-.4989.0334zm0-.0004l.4989-.0334c-.0005-.0073-.0011-.0146-.0019-.0218l-.497.0552zm4.2589 11.4941l-.4996-.0179c-.0063.1744.0789.3395.2246.4354.1458.096.3311.1091.4888.0344l-.2138-.4519zm0-.0002l-.2138-.452c-.1689.0799-.2792.2474-.2858.4341l.4996.0179zm3.7058-1.7529l.2138.452c.1738-.0822.2851-.2569.2862-.4492.001-.1923-.1083-.3682-.2812-.4523l-.2188.4495zm-3.9881-1.941l-.3025-.3981c-.1383.1051-.2121.2744-.195.4472.017.1728.1226.3244.2787.4004l.2188-.4495zm.0001-.0001l.2188-.4496c-.1696-.0825-.3712-.0626-.5213.0515l.3025.3981zm3.988 1.9411l-.2188.4496c.1645.08.3596.0639.5087-.0422.1491-.1061.2283-.2851.2066-.4668l-.4965.0594zm-.5529-4.6233l.4965-.0593c-.0025-.0209-.0063-.0416-.0114-.0619l-.4851.1212zm0 0l-.3069-.3947c-.1563.1216-.2262.3239-.1781.516l.485-.1213zm.0001 0l-.007-.5c-.1088.0015-.2141.0385-.3.1053l.307.3947zm.0063-.0001l.4965-.0587c-.0301-.2543-.2474-.4448-.5035-.4413l.007.5zm.5466 4.6235l.424.265c.0603-.0965.0859-.2107.0725-.3237l-.4965.0587zm0 0l.4096.2868c.005-.0072.0098-.0144.0144-.0218l-.424-.265zM9.28769 21.156l-.44487.2282c.08834.1722.26811.278.46153.2715l-.01666-.4997zm.00017 0l.01666.4997c.17115-.0057.32748-.0986.41431-.2462.08682-.1476.09207-.3294.0139-.4818l-.44487.2283zm-2.69959-5.2616l.35611-.351c-.17331-.1758-.44903-.1988-.6491-.0542-.20007.1447-.26458.4138-.15188.6334l.44487-.2282zm.00036.0004l.44487-.2283c-.02318-.0452-.05311-.0865-.08876-.1227l-.35611.351zm2.68204 2.7171l-.49972.0166c.00718.2155.1517.4022.35855.463l.14117-.4796zm3.31743.9764l-.1412.4796c.1891.0557.3933-.0049.5213-.1548.1281-.1499.1561-.361.0716-.5391l-.4517.2143zm-3.31743-.9765l-.17893-.4669c-.19909.0763-.3279.2705-.32079.4836l.49972-.0167zm.00016-.0001l.14117-.4796c-.10521-.031-.21769-.0265-.3201.0128l.17893.4668zm3.31717.9764l.4517-.2143c-.061-.1287-.174-.2252-.3105-.2654l-.1412.4797zm-.0136-.0289l-.4513.2152c.1187.2489.4164.3547.6655.2366.2491-.1182.3556-.4156.2381-.665l-.4523.2132zm-.9605-2.0135l-.2071-.4552c-.1221.0556-.2168.1579-.2627.284-.0459.1261-.0393.2653.0185.3864l.4513-.2152zm.0095-.0044l.4523-.2131c-.1166-.2475-.4104-.3553-.6594-.242l.2071.4551zM1.48949 10.1568l-1-4.79995-.97898.20395 1 4.8.97898-.204zm-.82717.9744l.63529-.4706-.595224-.80355-.6352938.47055.5952278.8036zm.94673-.0817l-.941172-.7177-.6063433.7952.9411753.7177.60634-.7952zm-.71162 1.3552l.71765-.5647-.618392-.7859-.717648.5647.61839.7859zm.96901.0965l-.94118-.8588-.67405.7387.94118.8588.67405-.7387zm-.63311 1.1987l.58823-.4235-.5843-.8116-.588236.4236.584306.8115zm1.44141.8582L1.3218 12.9699l-.761245.6485L1.9135 15.2066l.76124-.6485zm5.63185-1.9556l-6.15286 1.8.28078.9597 6.15285-1.7999-.28077-.9598zm.55637.7573l.00004-.0001-.83205-.5547-.00005.0001.83206.5547zm-6.42853 2.0025l6.15289-1.8-.28078-.9597-6.15288 1.7999.28077.9598zM.723088 21.4117l2.047022-6.3764-.95214-.3057-2.047021 6.3764.952139.3057zm-.206749.2684h.000032l-.5387058-.8425-.0000328.0001.5387066.8424zm-.269315-.9212H.246986v1h.000038v-1zm2.385706 6.8653L.726859 21.1183l-.959669.2812 1.90588 6.5058.95966-.2811zm6.058-2.1768l-6.67047 1.8353.26528.9641 6.67047-1.8352-.26528-.9642zm.5478.2035l-.00005-.0001-.83022.5574.00005.0001.83022-.5574zm-.91176.2208l-.00001.0001.99331.1155.00001-.0001-.99331-.1155zm.36699-.4251H8.6937l.25945.9658.00007-.0001-.25946-.9657zm-.28863.7567l.00005.0001.83662-.5478-.00005-.0001-.83662.5478zm-.06175-.472l-.01648.1394.99308.1174.01648-.1394-.99308-.1174zm.97684.2561l.01631-.1393-.99322-.1163-.01631.1394.99322.1162zm-.15926.3109H9.161l-.67477-.738h-.00004l.67477.738zm3.58234.932l-3.70593-1.753-.42759.904 3.70592 1.753.4276-.904zm.2861.446v-.0001l-.9999.0122.9999-.0121zm-4.41962-1.2949l3.70592 1.7529.4276-.9039-3.70593-1.753-.42759.904zm1.82452.2199l-1.2941-1.0589-.63324.774 1.29412 1.0588.63322-.7739zm2.5923 1.7999l-2.6235-1.8235-.57077.8211 2.62357 1.8235.5707-.8211zm4.2205-.0894h-4.5059v1h4.5059v-1zm2.3508-1.7347l-2.6353 1.8235.569.8223 2.6353-1.8235-.569-.8223zm1.2619-1.0346l-1.294 1.0588.6332.7739 1.2941-1.0588-.6333-.7739zm.4497-.095h-.0001l-.2659.964.266-.964zm.3638.4256v-.0001l-.9936.1129v.0001l.9936-.1129zm-.9128-.221v.0001l.832.5547.0001-.0001-.8321-.5547zm7.2192 1.6306l-6.6705-1.8353-.2653.9642 6.6705 1.8352.2653-.9641zm1.3054-6.1652l-1.9177 6.5059.9592.2827 1.9177-6.5058-.9592-.2828zm.4796-.3586v1-1zm-.2884.9085h.0001l.5767-.817h-.0001l-.5767.817zm-2.2577-6.6305l2.0705 6.3764.9511-.3088-2.0705-6.3765-.9511.3089zm-5.8176-1.4745l6.1527 1.7999.2808-.9598-6.1528-1.7999-.2807.9598zm-.2747-.2012v.0002l.83-.5578v-.0001l-.83.5577zm6.7083 1.0413l-6.1529-1.8-.2808.9597 6.1529 1.8.2808-.9597zm.8451-1.4342l-1.3647 1.5882.7584.6517 1.3647-1.5882-.7584-.6517zm-.5012.3081l.5883.4235.5843-.8115-.5883-.4236-.5843.8116zm.8963-1.634l-.9411.8588.674.7387.9412-.8588-.6741-.7387zm-.6984.2l.7294.5647.6121-.7907-.7294-.5647-.6121.7907zm.944-1.5106l-.9411.7177.6063.7952.9412-.7177-.6064-.7952zm-.6215.3261l.6235.4706.6024-.7982-.6235-.47057-.6024.79817zm.8117-5.30105l-1 4.79995.979.204 1-4.8-.979-.20395zm-1.4787-4.19799l1.4941 4.45883.9482-.31773L28.9801.841136l-.9482.317724zm.547.40966l.2251-.16702-.596-.802998-.2251.167026.596.802992zM28.2077.5986l-.2249.167026.5963.802804.2248-.16703-.5962-.8028zm-9.0681 4.43448l9.5412-3.5647-.35-.936758-9.5412 3.564708.35.93675zm.2879-.27916v-.00003l-.9257-.37837v.00003l.9257.37837zm-.4629-.68918h-7.9292v1h7.9292v-1zm-8.392.68915v.00003l.9256-.37837v-.00003l-.9256.37837zM1.30765 1.46845l9.55295 3.56471.3496-.9369L1.65726.531552l-.34961.936898zm.48184-.86314L1.78394.601118l-.60297.797762.00555.00419.60297-.79776zm-.60513.79619l.00565.00419.59598-.802995-.00564-.004193-.59599.802998zM.474467 5.61656L1.95682 1.15774 1.00789.842262-.474467 5.30109l.948934.31547zM13.2339 15.6887l-6.62349-.2941-.04437.999 6.62346.2941.0444-.999zm-7.06333-.0695l-.00006.0001.83531.5498.00006-.0001-.83531-.5498zm-.02701.5037l.00003.0001.88921-.4575-.00003-.0001-.88921.4575zm.42041.2708h.00017l.04846-.9988-.00017-.0001-.04846.9989zm.46929-.7276l-.00005-.0001-.88978.4564.00005.0001.88978-.4564zm-.80075.5793l.00011.0002.71162-.7026-.00012-.0001-.71161.7025zm.33374.1484l6.62325.2941.0443-.999-6.62319-.2941-.04436.999zm6.15365-.2956l-.6235 3.3997.9836.1804.6235-3.3997-.9836-.1804zm-.622 3.3919v.0002l.9805.1961.0001-.0002-.9806-.1961zm.3397.575l.3011-.9536-.3011.9536zm-.3403-.3818l.7765 4.0118.9817-.19-.7764-4.0118-.9818.19zm.9841 3.5048l-.5646.3881.5665.8241.5646-.3882-.5665-.824zm-.7782.744l-.2941 2.5999.9937.1124.2941-2.5999-.9937-.1124zm-.2972 2.6622l.9999-.0122-.9999.0122zm.8443.3564l-.6887-.725.6887.725zm.1525-.3063l.2941-2.5999-.9937-.1124-.2941 2.5999.9937.1124zm.0805-2.244l.5647-.3883-.5665-.824-.5647.3882.5665.8241zm.2815-.3003h3.2588v-1h-3.2588v1zm3.5195-.9266v-.0001l-.5215.8533h.0001l.5214-.8532zm.2299.523l.7882-4.0118-.9812-.1928-.7883 4.0118.9813.1928zm.4383-3.6284l3.3293-.9764-.2814-.9596-3.3293.9764.2814.9596zm3.395-1.0008h.0001l-.4128-.9109-.0001.0001.4128.9108zm.1503-.105l2.6705-2.7175-.7132-.7009-2.6705 2.7175.7132.7009zm2.757-2.8363l.0001-.0001-.8862-.4634-.0001.0002.8862.4633zm-.026-.5076l-.0001-.0002-.8341.5516.0001.0002.8341-.5516zm-.4394-.2239l-6.6116.2941.0444.999 6.6116-.2941-.0444-.999zm-6.0917.8416v-.0002l-.9954-.0957-.0001.0002.9955.0957zm-.0243.1129v-.0001l-.9469-.3213-.0001.0001.947.3213zm-.4556.3391l-.0357-.9994.0357.9994zm.4766-.4251v-.0001l-.9888-.1493v.0001l.9888.1493zm-.9871.0105v.0001l.9854-.1705v-.0001l-.9854.1705zm.5149.4144l6.6117-.2941-.0444-.999-6.6117.2941.0444.999zm6.2329-1.1441l-2.6706 2.7177.7132.7009 2.6706-2.7177-.7132-.7009zm-2.1069 2.613l-2.353-1.0706-.4141.9102 2.3529 1.0706.4142-.9102zm-3.0113-.8308l-.002.0042.9025.4306.002-.0042-.9025-.4306zm.2422.6746l2.3432 1.0662.4142-.9102-2.3433-1.0662-.4141.9102zm2.4096.1313l-3.3157.9724.2814.9596 3.3157-.9725-.2814-.9595zm-3.6262 1.2369l-.002.0041.9025.4307.002-.0042-.9025-.4306zm-.0397.3242l.9778-.2095-.9778.2095zm-.0017-.2011l-.7882 4.0117.9812.1928.7883-4.0117-.9813-.1928zm.2022 4.0944v-.001l-.9996.0274v.0011l.9996-.0275zm.0002.0156v-.0011l-1-.0036v.001l1 .0037zm-3.7587.4981h3.2587v-1h-3.2587v1zm-.0201-.0004h.0001l.0399-.9992h-.0001l-.0399.9992zm-.48-.4991v.0005l1-.0019v-.0005l-1 .0019zm-.7673-3.9172l.7764 4.0113.9817-.1901-.7763-4.0112-.9818.19zm.6225-3.5848l-.6234 3.3996.9836.1804.6234-3.3997-.9836-.1803zm-.0071.1231l.0001.0004.9977-.0667v-.0004l-.9978.0667zm.002.0218v.0001l.9939-.1104v-.0001l-.9939.1104zm4.9696 11.8909l3.7058-1.7528-.4275-.904-3.7059 1.7529.4276.9039zm-.7134-.47v.0002l.9993.0357V27.7l-.9993-.0357zm3.9916-2.187l-3.7058 1.7529.4276.904 3.7058-1.7529-.4276-.904zm-3.9931-1.0395l3.988 1.9411.4377-.8991-3.988-1.9411-.4377.8991zm-.0836-.8477l-.0001.0001.6051.7961-.605-.7962zm4.5093 1.8896l-3.988-1.9411-.4376.8992 3.988 1.9411.4376-.8992zm-1.2681-4.1143l.5529 4.6233.9929-.1188-.5529-4.6232-.9929.1187zm.0114.0619l.9701-.2425v-.0001l-.9701.2426zm.1781-.516l.6139.7894v-.0001l-.6139-.7893zm.3063-.1054l-.0063.0001.0139.9999.0063-.0001-.0139-.9999zm1.0501 5.0648l-.5466-4.6235-.9931.1174.5467 4.6235.993-.1174zm-.0725.3237l-.848-.53.848.53zm-.0144.0218l-.8192-.5735h-.0001l.8193.5735zM9.30435 21.6557h.00017l-.03332-.9994h-.00017l.03332.9994zM6.1434 16.1226l2.69942 5.2616.88974-.4565-2.69942-5.2615-.88974.4564zm.80134-.5788l-.00036-.0004-.71222.702.00036.0003.71222-.7019zm2.78799 5.3839L7.0335 15.6665l-.88974.4565 2.69923 5.2612.88974-.4565zm-.60323-1.8362l3.3174.9764.2824-.9593-3.31745-.9764-.28235.9593zm-.35855-.463l.99945-.0333-.00001-.0001-.99944.0334zm.32095-.4836h-.00016l.35786.9338.00016-.0001-.35786-.9337zm3.6373.9635l-3.3172-.9763-.28235.9593 3.31715.9763.2824-.9593zm.3106.2656l-.0001-.0002-.9035.4286.0001.0002.9035-.4286zm-.0142-.0301l-.9604-2.0135-.9026.4305.9605 2.0135.9025-.4305zm-1.8545-1.5894l.951 2.0178.9046-.4263-.951-2.0178-.9046.4263zm.6499.2463l.0095-.0044-.4142-.9102-.0095.0043.4142.9103z" fill="#fff"/></svg>