<svg width="8" height="8" viewBox="0 0 8 8" fill="none" xmlns="http://www.w3.org/2000/svg">
<circle cx="4" cy="4" r="3.65" stroke="#FFC30D" stroke-width="0.7"/>
<path d="M2.90979 2.20472C2.98019 2.14072 3.05699 2.08099 3.14019 2.02552C3.22339 1.97006 3.31299 1.92099 3.40899 1.87832C3.50712 1.83566 3.61272 1.80259 3.72579 1.77912C3.84099 1.75352 3.96472 1.74072 4.09699 1.74072C4.27406 1.74072 4.43619 1.76632 4.58339 1.81752C4.73272 1.86659 4.86072 1.93806 4.96739 2.03192C5.07619 2.12366 5.16046 2.23566 5.22019 2.36792C5.27992 2.49806 5.30979 2.64419 5.30979 2.80632C5.30979 2.96846 5.28632 3.10926 5.23939 3.22872C5.19246 3.34606 5.13272 3.44846 5.06019 3.53592C4.98766 3.62339 4.90872 3.70019 4.82339 3.76632C4.73806 3.83032 4.65699 3.89112 4.58019 3.94872C4.50552 4.00419 4.44046 4.06072 4.38499 4.11832C4.33166 4.17379 4.29966 4.23566 4.28899 4.30392L4.22179 4.78392H3.75459L3.70659 4.25592C3.69592 4.15566 3.71192 4.06926 3.75459 3.99672C3.79726 3.92419 3.85379 3.85592 3.92419 3.79192C3.99672 3.72792 4.07566 3.66712 4.16099 3.60952C4.24846 3.54979 4.32952 3.48366 4.40419 3.41112C4.47886 3.33859 4.54179 3.25752 4.59299 3.16792C4.64419 3.07832 4.66979 2.97059 4.66979 2.84472C4.66979 2.76152 4.65379 2.68686 4.62179 2.62072C4.58979 2.55246 4.54499 2.49486 4.48739 2.44792C4.42979 2.40099 4.36259 2.36472 4.28579 2.33912C4.20899 2.31352 4.12579 2.30072 4.03619 2.30072C3.91032 2.30072 3.80366 2.31566 3.71619 2.34552C3.62872 2.37539 3.55406 2.40846 3.49219 2.44472C3.43032 2.47886 3.37912 2.51086 3.33859 2.54072C3.29806 2.56846 3.26392 2.58232 3.23619 2.58232C3.17006 2.58232 3.12099 2.55352 3.08899 2.49592L2.90979 2.20472ZM3.52419 6.00312C3.52419 5.94126 3.53486 5.88366 3.55619 5.83032C3.57966 5.77486 3.61059 5.72686 3.64899 5.68632C3.68952 5.64579 3.73646 5.61379 3.78979 5.59032C3.84526 5.56686 3.90392 5.55512 3.96579 5.55512C4.02766 5.55512 4.08526 5.56686 4.13859 5.59032C4.19406 5.61379 4.24206 5.64579 4.28259 5.68632C4.32312 5.72686 4.35512 5.77486 4.37859 5.83032C4.40206 5.88366 4.41379 5.94126 4.41379 6.00312C4.41379 6.06712 4.40206 6.12579 4.37859 6.17912C4.35512 6.23246 4.32312 6.27939 4.28259 6.31992C4.24206 6.36046 4.19406 6.39139 4.13859 6.41272C4.08526 6.43619 4.02766 6.44792 3.96579 6.44792C3.90392 6.44792 3.84526 6.43619 3.78979 6.41272C3.73646 6.39139 3.68952 6.36046 3.64899 6.31992C3.61059 6.27939 3.57966 6.23246 3.55619 6.17912C3.53486 6.12579 3.52419 6.06712 3.52419 6.00312Z" fill="#FFC30D"/>
</svg>
