<svg width="60" height="60" viewBox="0 0 60 60" fill="none" xmlns="http://www.w3.org/2000/svg">
<circle cx="30" cy="30" r="30" fill="#2B71FF" fill-opacity="0.1"/>
<path d="M41.8533 41.5892H18.2617C20.081 40.7676 23.9542 38.9777 24.7171 38.1854L41.2371 21.6655C41.7653 21.1373 42.0293 20.4624 42.0293 19.7289C42.0293 18.9953 41.7359 18.2911 41.2371 17.7923C40.7089 17.2641 40.034 17 39.3005 17C38.5669 17 37.8627 17.2934 37.3638 17.7923L20.8439 34.2829C19.8462 35.2805 17.1174 41.4425 17 41.7066C17 41.7359 17 41.7653 17 41.7653C17 41.7946 17 41.7946 17 41.8239V41.8533C17 41.8826 17.0293 41.912 17.0293 41.912C17.0587 41.9413 17.088 41.9413 17.1174 41.9707C17.1467 41.9707 17.1761 42 17.2054 42H41.8533C41.9707 42 42.088 41.912 42.088 41.7653C42.088 41.6185 41.9707 41.5892 41.8533 41.5892Z" fill="#2B71FF"/>
</svg>
