  <svg width="60" height="60" viewBox="0 0 60 60" fill="none" xmlns="http://www.w3.org/2000/svg">
    <circle cx="30" cy="30" r="30" fill="#2B71FF" fillOpacity="0.1" />
    <path
      d="M30.3405 15C26.2251 15 22.8945 18.3306 22.8945 22.446V25.2367C21.4493 25.4983 20 25.8472 20 26.2998V40.8638C20 40.8638 20 41.2666 20.4527 41.4576C22.093 42.1221 28.5465 44.4061 30.0291 44.9294C30.2201 45 30.2741 45 30.3239 45C30.3945 45 30.4277 45 30.6188 44.9294C32.1013 44.4061 38.5714 42.1221 40.2118 41.4576C40.6312 41.2832 40.6478 40.8804 40.6478 40.8804V26.2998C40.6478 25.8472 39.2193 25.4817 37.7699 25.2367V22.446C37.7907 18.3306 34.4394 15 30.3405 15ZM30.3405 18.559C32.7658 18.559 34.2317 20.0249 34.2317 22.4502V24.8754C31.5116 24.6844 29.1902 24.6844 26.4535 24.8754V22.4502C26.4535 20.0208 27.9194 18.559 30.3405 18.559ZM30.3239 28.4468C33.7085 28.4468 36.549 28.7085 36.549 29.1777V38.2641C36.549 38.4053 36.5324 38.4219 36.4078 38.4718C36.2874 38.5257 30.6354 40.5648 30.6354 40.5648C30.6354 40.5648 30.407 40.6354 30.3405 40.6354C30.2699 40.6354 30.0457 40.5482 30.0457 40.5482C30.0457 40.5482 24.3937 38.5091 24.2733 38.4551C24.1528 38.4012 24.1321 38.3845 24.1321 38.2475V29.1611C24.0988 28.6919 26.9394 28.4468 30.3239 28.4468Z"
      fill="#2B71FF"
    />
  </svg>