<svg width="17" height="20" viewBox="0 0 17 20" fill="none" xmlns="http://www.w3.org/2000/svg">
<path d="M0.833005 4.02428C3.31515 3.1356 5.64447 1.8631 7.73712 0.25259C7.95685 0.0885587 8.2232 0 8.49681 0C8.77041 0 9.03676 0.0885587 9.25649 0.25259C11.3512 1.86345 13.6827 3.13595 16.167 4.02428C16.412 4.1131 16.6236 4.27612 16.7728 4.49092C16.922 4.70572 17.0013 4.96175 17 5.22379C17 9.6241 16.15 12.9468 14.416 15.3736C13.0259 17.3394 11.257 18.4675 9.69014 19.4668L9.64112 19.4981L9.17149 19.7995C8.96855 19.9304 8.73255 20 8.49149 20C8.25044 20 8.01444 19.9304 7.81149 19.7995L7.34187 19.5002C5.7545 18.4931 3.97163 17.3514 2.567 15.3757C0.850005 12.9468 5.8573e-06 9.6241 5.8573e-06 5.21951C-0.000786657 4.95813 0.0788614 4.70291 0.228012 4.4889C0.377163 4.27489 0.588502 4.11259 0.833005 4.02428ZM0.833005 4.02428L1.17269 4.96482C1.12342 4.98262 1.07976 5.01571 1.04842 5.06067C1.01703 5.10572 0.99983 5.16015 1 5.21648L1.00001 5.21951C1.00001 9.50744 1.8291 12.5988 3.3828 14.7974C4.66104 16.5948 6.28557 17.6458 7.87758 18.6558L7.87937 18.6569L8.349 18.9563L8.35349 18.9591C8.39517 18.986 8.44306 19 8.49149 19C8.53993 19 8.58782 18.986 8.62951 18.9592L8.63127 18.958L9.10089 18.6565L9.10335 18.655L9.10512 18.6538C10.6951 17.6397 12.323 16.6013 13.5995 14.7962L13.6023 14.7922C15.1705 12.5975 16 9.50848 16 5.22379V5.21859H16C16.0003 5.16177 15.983 5.10682 15.9514 5.06132C15.9202 5.01629 15.8766 4.98301 15.8275 4.96488C13.249 4.04253 10.8291 2.72215 8.65467 1.05128C8.60805 1.01764 8.55284 1 8.49681 1C8.44081 1 8.38564 1.01762 8.33903 1.05122C6.16596 2.7223 3.74738 4.04301 1.17008 4.96576L0.833005 4.02428Z" stroke="#2B71FF" stroke-width="2"/>
</svg>
