<svg width="22" height="20" viewBox="0 0 22 20" fill="none" xmlns="http://www.w3.org/2000/svg">
<path d="M13.8434 9.72878C15.2054 8.75512 16.0976 7.16439 16.0976 5.36585C16.0976 2.40732 13.6902 0 10.7317 0C7.77317 0 5.36585 2.40732 5.36585 5.36585C5.36585 7.16439 6.25805 8.75463 7.62 9.72878C3.21512 11.0663 0 15.1639 0 20H1.46341C1.46341 14.8893 5.62098 10.7317 10.7317 10.7317C15.8424 10.7317 20 14.8893 20 20H21.4634C21.4634 15.1644 18.2478 11.0663 13.8434 9.72878ZM6.82927 5.36585C6.82927 3.21415 8.58 1.46341 10.7317 1.46341C12.8834 1.46341 14.6341 3.21415 14.6341 5.36585C14.6341 7.51756 12.8834 9.26829 10.7317 9.26829C8.58 9.26829 6.82927 7.51756 6.82927 5.36585Z" fill="#2B71FF"/>
</svg>
